{"glyphs":{"0":{"ha":867,"x_min":0,"x_max":806,"o":"m 783 0 l 532 0 q 475 60 483 0 l 475 102 q 462 116 475 109 l 452 116 q 434 37 452 98 l 434 5 q 415 0 426 0 l 349 0 q 260 70 328 0 q 172 42 231 57 q 130 5 160 5 l 60 5 q 28 18 45 5 q 18 391 23 119 q 60 441 37 441 l 88 437 l 93 446 l 93 456 q 14 484 14 465 q 9 521 9 509 q 5 888 5 833 q 0 916 0 913 q 47 967 16 967 l 462 967 q 690 972 546 967 q 755 954 755 958 q 801 586 801 800 l 801 386 l 806 358 l 801 349 q 806 121 806 205 l 806 37 q 783 0 806 12 m 467 191 q 457 353 462 323 q 462 391 462 372 l 462 405 q 457 409 462 409 q 467 446 467 426 l 467 465 q 457 614 457 602 l 457 753 l 452 777 l 381 777 q 349 642 349 777 q 344 623 344 625 l 330 623 q 288 651 301 651 q 177 632 260 642 l 98 642 l 98 632 q 181 609 98 618 l 275 609 q 353 534 310 609 q 321 223 353 467 q 363 191 334 191 l 467 191 z "},"1":{"ha":399,"x_min":0,"x_max":334,"o":"m 37 972 l 291 972 q 329 892 329 972 l 329 831 q 334 789 329 814 q 291 751 334 758 l 244 751 q 202 723 202 729 l 202 713 q 263 718 232 713 q 324 695 324 709 l 324 606 q 329 37 324 408 q 286 0 317 0 l 258 0 q 169 90 229 0 q 159 80 159 87 l 159 61 q 169 9 159 28 l 155 0 l 33 0 q 0 71 19 0 q 5 667 5 522 l 9 709 l 5 718 q 9 864 9 805 l 9 958 q 37 972 14 972 z "},"2":{"ha":861,"x_min":0,"x_max":774,"o":"m 38 0 q 5 208 16 0 q 43 227 17 227 l 137 227 l 160 231 q 174 189 169 220 l 170 189 q 174 99 174 114 q 179 85 174 94 q 174 80 174 85 l 174 56 l 179 33 q 113 0 143 0 l 38 0 m 628 0 q 581 118 581 0 l 581 137 l 576 137 q 553 9 557 137 l 553 5 l 297 5 q 193 123 249 5 q 198 142 193 133 q 193 193 193 174 l 193 245 l 184 259 q 80 254 134 259 q 19 278 19 262 l 19 377 q 33 387 19 387 l 33 396 l 19 420 q 24 570 24 531 q 28 585 24 576 q 170 580 130 580 q 227 490 227 580 l 222 467 l 231 462 q 259 528 259 479 l 254 551 l 259 570 q 421 589 259 589 l 439 589 l 449 594 q 426 787 426 753 l 378 783 q 363 787 382 783 q 80 778 296 778 l 56 778 q 0 891 0 778 q 5 915 5 899 l 5 957 q 19 971 12 971 l 718 971 q 765 939 765 971 q 760 853 765 910 l 765 844 q 760 787 760 844 q 685 717 760 717 q 633 731 676 717 l 543 717 l 543 712 q 562 698 543 705 l 572 703 q 595 693 595 703 q 770 655 770 680 q 765 637 765 647 l 765 509 q 760 439 765 486 q 765 429 765 439 q 751 382 760 382 l 353 382 q 335 222 345 264 l 340 198 l 690 198 q 699 189 699 198 l 699 179 l 675 174 l 605 174 q 581 146 588 165 q 586 142 586 146 l 633 146 l 699 146 q 755 193 718 146 l 760 193 q 770 184 770 193 l 770 132 q 774 28 770 99 q 690 0 751 0 l 628 0 z "},"3":{"ha":851,"x_min":0,"x_max":789,"o":"m 733 0 l 19 0 q 5 14 12 0 l 5 56 q 0 80 5 72 q 56 193 0 193 l 80 193 q 361 183 295 193 q 395 188 380 188 l 441 183 q 465 376 441 217 l 456 380 l 437 380 q 258 399 258 380 l 254 418 l 258 441 q 230 507 258 490 l 221 503 l 226 479 q 169 390 226 390 q 28 385 130 390 q 24 399 24 394 q 19 550 24 439 q 66 587 37 587 l 188 587 q 230 545 212 587 l 235 545 q 268 587 235 587 l 441 587 q 460 756 446 666 q 456 775 456 764 l 90 775 q 80 785 80 777 l 80 794 l 103 799 l 174 799 q 197 827 191 808 q 193 831 193 827 l 146 827 l 80 827 q 24 780 62 827 l 19 780 q 9 789 9 781 l 9 841 q 5 944 9 874 q 90 972 27 972 l 151 972 q 197 855 197 972 l 197 836 l 202 836 q 226 968 222 836 l 488 968 q 602 850 550 968 q 597 831 602 840 q 602 780 602 800 l 602 728 q 620 714 602 716 q 719 719 658 714 q 775 695 775 709 l 775 597 q 780 592 775 592 l 775 583 l 775 578 q 780 541 775 559 q 775 531 780 531 q 780 460 780 484 l 780 334 q 785 315 780 323 q 611 277 785 291 q 587 268 611 269 l 578 273 q 559 258 559 265 l 559 254 l 648 239 q 700 254 692 254 q 775 183 775 254 q 780 127 775 127 l 775 117 q 780 33 780 61 q 733 0 780 0 m 634 743 q 620 780 629 750 l 625 789 q 620 883 620 852 l 616 883 l 620 892 l 620 916 q 616 935 620 926 q 681 972 616 957 l 756 972 q 789 761 779 972 q 751 747 766 747 l 658 747 l 634 743 z "},"4":{"ha":885,"x_min":0,"x_max":818,"o":"m 762 972 q 799 902 799 972 q 808 869 804 902 l 794 757 q 818 677 799 728 q 766 598 818 598 q 677 537 696 598 q 659 532 669 532 l 612 532 q 570 509 589 532 l 654 495 l 781 495 l 794 486 l 789 453 l 789 448 q 808 374 789 439 q 785 159 785 222 q 799 136 794 136 q 794 121 799 130 q 799 42 799 73 q 752 0 780 0 l 503 0 q 458 187 455 43 q 472 313 458 206 l 472 336 q 444 378 472 357 q 271 383 326 383 l 121 383 l 112 388 q 149 435 121 435 l 196 435 q 238 458 220 435 l 154 472 l 28 472 l 14 481 l 19 514 l 19 519 q 0 593 19 528 q 23 818 23 741 l 23 827 q 9 892 9 888 l 9 916 q 61 967 9 954 l 149 967 l 173 962 l 173 916 q 187 902 173 909 l 191 902 q 229 967 201 967 l 299 967 q 336 930 329 967 l 332 920 l 332 911 q 355 818 332 878 q 322 677 349 677 q 107 654 207 668 l 107 645 l 322 645 l 355 598 l 369 589 l 401 589 l 458 584 q 472 677 467 602 q 467 692 472 682 q 477 869 477 774 q 528 972 501 972 l 762 972 z "},"5":{"ha":861,"x_min":0,"x_max":774,"o":"m 38 971 l 113 971 q 179 939 143 971 l 174 915 l 174 891 q 179 886 174 886 q 174 872 174 878 q 170 783 174 858 l 174 783 q 160 741 169 751 l 137 745 l 43 745 q 5 764 17 745 q 38 971 16 971 m 690 971 q 774 943 751 971 q 770 840 770 872 l 770 787 q 760 778 770 778 l 755 778 q 699 825 718 825 l 675 797 l 699 792 l 699 783 q 690 773 699 773 l 340 773 l 335 749 q 353 589 345 707 l 751 589 q 765 543 760 589 q 760 533 765 533 q 765 462 765 486 l 765 335 q 770 316 765 324 q 595 278 770 292 q 572 269 595 269 l 562 273 q 543 259 543 267 l 543 254 l 633 241 q 685 254 676 254 q 760 184 760 254 q 765 127 760 127 l 760 118 q 765 33 765 61 q 718 0 765 0 l 19 0 q 5 14 12 0 l 5 56 q 0 80 5 73 q 56 193 0 193 l 80 193 q 363 184 296 193 q 378 189 382 189 l 426 184 q 449 377 426 218 l 439 382 l 421 382 q 259 401 259 382 l 254 420 l 259 444 q 231 509 259 492 l 222 505 l 227 481 q 170 391 227 391 q 28 387 130 391 q 24 401 24 396 q 19 551 24 441 l 33 575 l 33 585 q 19 594 19 585 l 19 693 q 80 717 19 709 q 184 712 134 712 l 193 726 l 193 778 q 198 830 193 798 q 193 848 193 838 q 297 966 249 966 l 690 971 z "},"6":{"ha":861,"x_min":0,"x_max":774,"o":"m 38 971 l 113 971 q 179 939 143 971 l 174 915 l 174 891 q 179 886 174 886 q 174 872 174 878 q 170 783 174 858 l 174 783 q 160 741 169 751 l 137 745 l 43 745 q 5 764 17 745 q 38 971 16 971 m 258 460 q 231 509 254 495 l 222 505 l 227 481 q 226 466 227 473 q 258 460 241 465 m 37 387 q 28 387 33 387 q 24 401 24 396 q 19 551 24 441 l 33 575 l 33 585 q 19 594 19 585 l 19 693 q 80 717 19 709 q 184 712 134 712 l 193 726 l 193 778 q 198 830 193 798 q 193 848 193 838 q 297 966 249 966 l 553 966 l 553 962 q 576 835 557 835 l 581 835 l 581 853 q 628 971 581 971 l 690 971 q 774 943 751 971 q 770 840 770 872 l 770 787 q 760 778 770 778 l 755 778 q 699 825 718 825 l 633 825 l 586 830 q 581 825 586 825 q 605 797 588 806 l 675 797 l 699 792 l 699 783 q 690 773 699 773 l 340 773 l 335 749 q 353 589 345 707 l 751 589 q 765 543 760 589 q 760 533 765 533 q 765 462 765 486 l 765 335 q 770 316 765 324 q 595 278 770 292 q 572 269 595 269 l 562 273 q 543 259 543 267 l 543 254 l 633 241 q 685 254 676 254 q 760 184 760 254 q 765 127 760 127 l 760 118 q 765 33 765 61 q 718 0 765 0 l 19 0 q 5 14 12 0 l 5 56 q 0 80 5 73 q 11 157 0 130 q 37 387 22 310 m 332 187 q 363 184 350 186 q 379 189 380 188 l 426 184 q 449 377 426 218 l 439 382 l 421 382 q 341 383 374 382 l 339 374 l 339 336 q 348 328 339 328 q 339 305 339 313 q 332 187 339 284 z "},"7":{"ha":792,"x_min":0,"x_max":723,"o":"m 412 9 q 370 363 385 9 q 374 395 374 369 l 374 410 l 370 419 q 379 452 379 419 l 379 471 q 370 622 379 483 l 370 763 q 360 791 370 776 l 328 787 l 214 787 q 172 843 178 787 q 195 857 172 850 q 248 923 221 923 q 224 960 231 960 q 182 895 186 913 q 130 867 130 895 q 139 829 130 862 l 139 800 q 125 787 132 787 l 42 787 q 0 857 10 787 q 24 913 3 859 q 56 975 24 975 l 662 975 l 671 970 q 718 593 718 804 l 718 391 l 723 358 q 718 353 718 358 q 723 123 723 208 l 723 38 q 699 0 723 12 l 445 0 l 412 9 z "},"8":{"ha":865,"x_min":0,"x_max":798,"o":"m 243 0 q 205 5 217 5 q 89 0 159 0 q 19 19 19 0 l 19 47 q 14 84 19 66 q 33 186 19 153 q 9 368 14 363 l 28 448 l 28 452 l 23 485 l 37 494 l 163 494 q 247 513 247 505 q 205 532 219 532 l 159 532 q 112 583 137 532 q 14 606 83 596 q 0 676 6 623 q 23 755 19 726 l 9 867 q 52 970 24 970 l 578 970 q 587 960 587 970 l 587 951 q 574 918 574 934 l 574 872 q 578 788 574 832 l 574 769 q 616 676 592 667 l 620 676 q 602 788 602 710 l 602 914 q 648 970 612 935 l 736 970 l 760 975 q 783 699 773 975 q 676 681 775 691 q 629 686 652 686 l 625 676 q 736 648 654 660 q 793 527 793 623 q 798 429 798 445 q 779 350 798 411 l 793 317 l 779 294 l 793 14 q 788 9 788 14 l 779 14 q 741 5 762 5 l 462 5 q 243 0 365 5 m 452 186 l 471 363 q 467 378 467 373 l 378 378 q 340 326 340 357 l 331 321 l 117 321 l 117 313 q 350 275 350 290 q 368 186 357 186 l 401 191 q 452 186 442 186 m 415 587 l 438 587 l 448 592 l 438 676 q 462 723 462 707 l 462 751 l 457 774 l 363 774 q 345 755 357 774 l 345 741 q 350 694 345 720 l 345 676 q 359 583 350 601 l 415 587 z "},"9":{"ha":861,"x_min":0,"x_max":774,"o":"m 38 971 l 113 971 q 179 939 143 971 l 174 915 l 174 891 q 179 886 174 886 q 174 872 174 878 q 170 783 174 858 l 174 783 q 160 741 169 751 l 137 745 l 43 745 q 5 764 17 745 q 38 971 16 971 m 472 773 l 340 773 l 335 749 q 353 589 345 707 l 450 589 q 472 773 459 709 m 751 589 q 765 543 760 587 q 760 533 765 533 q 765 462 765 486 l 765 335 q 770 316 765 324 q 595 278 770 292 q 572 269 595 269 l 562 273 q 543 259 543 267 l 543 254 l 633 241 q 685 254 676 254 q 760 184 760 254 q 765 127 760 127 l 760 118 q 765 33 765 61 q 718 0 765 0 l 19 0 q 5 14 12 0 l 5 56 q 0 80 5 73 q 56 193 0 193 l 80 193 q 363 184 296 193 q 379 189 380 188 l 426 184 q 449 377 426 218 l 439 382 l 421 382 q 259 401 259 382 l 254 420 l 259 444 q 231 509 259 492 l 222 505 l 227 481 q 170 391 227 391 q 28 387 130 391 q 24 401 24 396 q 19 551 24 441 l 33 575 l 33 585 q 19 594 19 585 l 19 693 q 80 717 19 709 q 184 712 134 712 l 193 726 l 193 778 q 198 830 193 798 q 193 848 193 838 q 297 966 249 966 l 553 966 l 553 962 q 567 844 556 869 l 581 844 l 581 853 q 628 971 581 971 l 690 971 q 774 943 751 971 q 770 840 770 872 l 770 787 q 762 778 770 779 l 757 752 l 757 714 q 765 707 757 707 q 757 684 757 692 q 751 589 757 665 z "},"\u0000":{"ha":0,"x_min":0,"x_max":0,"o":""},"\u001d":{"ha":0,"x_min":0,"x_max":0,"o":""}," ":{"ha":345,"x_min":0,"x_max":0,"o":""}," ":{"ha":345,"x_min":0,"x_max":0,"o":""},"!":{"ha":399,"x_min":-4,"x_max":330,"o":"m 28 236 l 282 236 q 321 209 320 236 q 329 37 322 182 q 286 0 317 0 l 258 0 q 169 90 229 0 q 159 80 159 87 l 159 61 q 169 9 159 28 l 155 0 l 33 0 q 0 71 19 0 q 1 222 5 175 q 28 236 5 236 m 292 332 l 38 332 q 1 412 1 332 l 1 473 q -4 515 1 490 q 38 552 -4 545 l 85 552 q 127 581 127 574 l 127 590 q 66 585 97 590 q 5 608 5 595 l 5 698 q 1 935 5 896 q 43 972 13 972 l 71 972 q 160 882 100 972 q 170 892 170 884 l 170 911 q 160 962 170 944 l 174 972 l 296 972 q 330 901 310 972 q 325 637 325 781 l 320 595 l 325 585 q 320 439 320 498 l 320 346 q 292 332 315 332 z "},"\"":{"ha":757,"x_min":0,"x_max":689,"o":"m 31 975 l 284 975 q 323 948 322 975 q 329 578 324 921 q 286 541 317 541 l 258 541 q 169 630 229 541 q 159 621 159 628 l 159 602 q 169 550 159 568 l 155 541 l 33 541 q 0 611 19 541 q 3 960 5 842 q 31 975 7 975 m 391 975 l 644 975 q 683 948 682 975 q 689 578 684 921 q 646 541 677 541 l 618 541 q 529 630 589 541 q 519 621 519 628 l 519 602 q 529 550 519 568 l 515 541 l 393 541 q 360 611 379 541 q 363 960 365 842 q 391 975 368 975 z "},"$":{"ha":861,"x_min":0,"x_max":774,"o":"m 38 971 l 113 971 q 179 939 143 971 l 174 915 l 174 891 q 179 886 174 886 q 174 872 174 878 q 170 783 174 858 l 174 783 q 160 741 169 751 l 137 745 l 43 745 q 5 764 17 745 q 38 971 16 971 m 395 966 q 392 971 393 968 q 384 966 386 970 l 395 966 m 550 966 l 553 966 l 553 962 q 576 835 557 835 l 581 835 l 581 853 q 628 971 581 971 l 690 971 q 774 943 751 971 q 770 840 770 872 l 770 787 q 760 778 770 778 l 755 778 q 699 825 718 825 l 633 825 l 586 830 q 581 825 586 825 q 605 797 588 806 l 675 797 l 699 792 l 699 783 q 690 773 699 773 l 340 773 l 335 749 q 353 589 345 707 l 751 589 q 765 543 760 589 q 760 533 765 533 q 765 462 765 486 l 765 335 q 770 316 765 324 q 595 278 770 292 q 572 269 595 269 l 562 273 q 543 259 543 267 l 543 254 l 633 241 q 685 254 676 254 q 760 184 760 254 q 765 127 760 127 l 760 118 q 765 33 765 61 q 718 0 765 0 l 552 0 q 555 -65 553 -29 q 512 -102 543 -102 l 484 -102 q 395 -13 455 -102 q 385 -22 385 -15 l 385 -41 q 395 -93 385 -75 l 380 -102 l 258 -102 q 226 -32 245 -102 q 227 0 227 -15 l 19 0 q 5 14 12 0 l 5 56 q 0 80 5 73 q 56 193 0 193 l 80 193 q 363 184 296 193 q 379 189 380 188 l 426 184 q 449 377 426 218 l 439 382 l 421 382 q 259 401 259 382 l 254 420 l 259 444 q 231 509 259 492 l 222 505 l 227 481 q 170 391 227 391 q 28 387 130 391 q 24 401 24 396 q 19 551 24 441 l 33 575 l 33 585 q 19 594 19 585 l 19 693 q 80 717 19 709 q 184 712 134 712 l 193 726 l 193 778 q 198 830 193 798 q 193 848 193 838 q 233 919 214 892 q 223 952 229 933 q 224 1103 228 1057 q 252 1118 229 1118 l 505 1118 q 545 1091 543 1118 q 550 966 545 1069 z "},"&":{"ha":1206,"x_min":0,"x_max":1127,"o":"m 155 230 q 169 193 161 222 l 164 183 q 169 90 169 120 l 174 90 l 169 80 l 169 56 q 174 37 169 46 q 108 0 174 16 l 33 0 q 0 212 10 0 q 37 226 24 226 l 132 226 l 155 230 m 525 5 l 300 5 q 188 122 239 5 q 193 141 188 133 q 188 193 188 173 l 188 244 q 169 258 188 256 q 71 254 132 258 q 14 277 14 263 l 14 376 q 9 380 14 380 l 14 390 l 14 395 q 9 432 14 414 q 14 441 9 441 q 9 512 9 488 l 9 639 q 5 658 9 650 q 178 695 5 682 q 202 705 178 703 l 212 700 q 230 714 230 707 l 230 719 l 141 733 q 90 719 98 719 q 14 789 14 719 q 9 846 14 846 l 14 855 q 9 940 9 911 q 56 972 9 972 l 770 972 q 785 958 777 972 l 785 916 q 789 892 785 901 q 733 780 789 780 l 709 780 q 427 789 494 780 q 395 785 409 785 l 348 789 q 324 597 348 755 l 334 592 l 353 592 q 471 589 427 592 l 471 684 q 494 722 471 709 l 749 722 l 781 712 q 824 507 808 712 q 819 474 819 501 l 819 460 l 824 450 q 814 418 814 450 l 814 399 q 824 248 814 387 l 827 212 q 836 184 827 199 l 869 189 l 913 189 q 955 132 949 189 q 932 118 955 125 q 880 52 906 52 q 903 14 896 14 q 945 80 941 61 q 998 109 998 80 q 988 146 998 113 l 988 174 q 1002 189 996 189 l 1085 189 q 1127 118 1117 189 q 1103 61 1124 117 q 1071 0 1103 0 l 534 0 l 525 5 m 475 385 l 348 385 q 329 216 343 307 q 334 197 334 208 l 482 197 q 475 276 476 240 l 475 385 z "},"'":{"ha":399,"x_min":0,"x_max":329,"o":"m 31 975 l 284 975 q 323 948 322 975 q 329 578 324 921 q 286 541 317 541 l 258 541 q 169 630 229 541 q 159 621 159 628 l 159 602 q 169 550 159 568 l 155 541 l 33 541 q 0 611 19 541 q 3 960 5 842 q 31 975 7 975 z "},",":{"ha":399,"x_min":2,"x_max":331,"o":"m 33 240 l 286 240 q 325 213 324 240 q 331 -157 326 186 q 288 -194 319 -194 l 260 -194 q 171 -104 231 -194 q 161 -114 161 -106 l 161 -133 q 171 -184 161 -166 l 157 -194 l 35 -194 q 2 -123 21 -194 q 5 226 7 107 q 33 240 9 240 z "},"-":{"ha":454,"x_min":0,"x_max":0,"o":""},"­":{"ha":454,"x_min":0,"x_max":0,"o":""},".":{"ha":399,"x_min":0,"x_max":329,"o":"m 28 236 l 282 236 q 321 209 320 236 q 329 37 322 182 q 286 0 317 0 l 258 0 q 169 90 229 0 q 159 80 159 87 l 159 61 q 169 9 159 28 l 155 0 l 33 0 q 0 71 19 0 q 1 222 5 175 q 28 236 5 236 z "},":":{"ha":399,"x_min":0,"x_max":331,"o":"m 31 406 l 284 406 q 323 379 322 406 q 331 207 324 352 q 288 170 319 170 l 260 170 q 171 259 231 170 q 161 250 161 257 l 161 231 q 171 179 161 197 l 157 170 l 35 170 q 2 240 21 170 q 3 391 7 345 q 31 406 7 406 m 28 764 l 282 764 q 321 737 320 764 q 329 565 322 710 q 286 528 317 528 l 258 528 q 169 617 229 528 q 159 608 159 615 l 159 589 q 169 537 159 555 l 155 528 l 33 528 q 0 598 19 528 q 1 749 5 703 q 28 764 5 764 z "},";":{"ha":399,"x_min":0,"x_max":329,"o":"m 31 406 l 284 406 q 323 379 322 406 q 329 14 324 352 q 286 -23 317 -23 l 258 -23 q 169 66 229 -23 q 159 57 159 64 l 159 38 q 169 -14 159 5 l 155 -23 l 33 -23 q 0 47 19 -23 q 3 391 7 345 q 31 406 7 406 m 28 764 l 282 764 q 321 737 320 764 q 329 565 322 710 q 286 528 317 528 l 258 528 q 169 617 229 528 q 159 608 159 615 l 159 589 q 169 537 159 555 l 155 528 l 33 528 q 0 598 19 528 q 1 749 5 703 q 28 764 5 764 z "},";":{"ha":399,"x_min":0,"x_max":329,"o":"m 31 406 l 284 406 q 323 379 322 406 q 329 14 324 352 q 286 -23 317 -23 l 258 -23 q 169 66 229 -23 q 159 57 159 64 l 159 38 q 169 -14 159 5 l 155 -23 l 33 -23 q 0 47 19 -23 q 3 391 7 345 q 31 406 7 406 m 28 764 l 282 764 q 321 737 320 764 q 329 565 322 710 q 286 528 317 528 l 258 528 q 169 617 229 528 q 159 608 159 615 l 159 589 q 169 537 159 555 l 155 528 l 33 528 q 0 598 19 528 q 1 749 5 703 q 28 764 5 764 z "},"?":{"ha":861,"x_min":0,"x_max":770,"o":"m 19 377 q 33 387 19 387 l 33 396 l 19 420 q 24 570 24 531 q 28 585 24 576 q 170 580 130 580 q 227 490 227 580 l 222 467 l 231 462 q 259 528 259 479 l 254 551 l 259 570 q 421 589 259 589 l 439 589 l 449 594 q 426 787 426 753 l 378 783 q 363 787 382 783 q 80 778 296 778 l 56 778 q 0 891 0 778 q 5 915 5 899 l 5 957 q 19 971 12 971 l 718 971 q 765 939 765 971 q 760 853 765 910 l 765 844 q 760 787 760 844 q 685 717 760 717 q 633 731 676 717 l 543 717 l 543 712 q 562 698 543 705 l 572 703 q 595 693 595 703 q 770 655 770 680 q 765 637 765 647 l 765 509 q 760 439 765 486 q 765 429 765 439 q 751 382 760 382 l 353 382 l 19 377 m 33 235 l 286 235 q 325 209 324 235 q 333 37 326 182 q 290 -1 321 -1 l 262 -1 q 173 89 233 -1 q 163 79 163 87 l 163 60 q 173 9 163 27 l 159 -1 l 37 -1 q 4 70 23 -1 q 5 221 9 174 q 33 235 9 235 z "},"A":{"ha":871,"x_min":0,"x_max":810,"o":"m 43 980 q 592 975 409 975 l 786 975 l 810 970 l 810 904 l 805 848 l 810 848 q 805 833 805 838 q 795 469 805 682 l 800 469 q 795 454 795 460 q 791 227 795 413 q 758 203 784 203 q 715 227 739 203 q 535 237 671 227 q 473 213 486 213 q 445 289 473 266 l 383 289 l 355 294 q 332 260 342 294 q 341 24 341 114 q 298 0 317 0 l 237 0 q 194 24 218 0 l 165 0 l 19 0 q 0 43 0 6 q 24 402 19 240 l 19 412 l 24 440 l 19 450 q 24 469 24 458 q 19 488 24 479 q 24 507 24 496 l 24 516 q 19 521 24 521 l 24 530 l 24 814 q 28 866 24 834 l 24 876 q 28 909 28 895 l 24 918 q 28 937 28 926 l 28 951 q 24 956 28 956 q 43 980 30 978 m 213 791 l 208 743 l 208 724 q 222 686 208 690 l 332 686 l 341 682 q 303 625 341 625 q 270 583 270 625 q 260 526 270 570 l 275 502 l 275 450 q 284 440 276 440 l 327 440 q 355 507 336 444 l 407 516 q 483 469 483 499 q 478 440 478 444 l 488 435 l 535 435 q 568 568 549 435 q 540 634 541 604 l 535 634 l 488 629 q 469 677 480 640 l 483 686 l 507 686 q 611 691 540 686 q 615 705 611 696 q 611 710 615 710 l 615 734 l 615 786 l 492 786 q 450 696 485 786 l 426 691 l 346 691 q 355 777 355 730 q 351 791 351 785 l 213 791 m 540 213 q 696 175 696 207 q 786 132 754 175 q 710 0 786 0 l 488 0 q 445 33 459 0 q 483 199 467 199 q 540 213 496 199 z "},"B":{"ha":865,"x_min":0,"x_max":798,"o":"m 555 975 q 592 970 581 970 q 709 975 639 975 q 779 956 779 975 l 779 928 q 783 890 779 909 q 765 788 779 822 q 788 606 783 611 l 769 527 l 769 522 l 774 490 l 760 480 l 634 480 q 550 462 550 469 q 592 443 578 443 l 639 443 q 686 392 661 443 q 783 368 713 378 q 798 298 791 351 q 774 219 779 248 l 788 107 q 746 5 773 5 l 219 5 q 210 14 210 5 l 210 23 q 224 56 224 41 l 224 102 q 219 186 224 142 l 224 205 q 182 298 205 308 l 177 298 q 196 186 196 264 l 196 60 q 149 5 185 40 l 60 5 l 37 0 q 14 275 24 0 q 121 294 22 283 q 168 289 146 289 l 172 298 q 60 326 143 315 q 5 448 5 352 q 0 545 0 530 q 19 625 0 564 l 5 657 l 19 681 l 5 960 q 9 965 9 960 l 19 960 q 56 970 36 970 l 336 970 q 555 975 433 970 m 345 788 l 326 611 q 331 597 331 602 l 420 597 q 457 648 457 617 l 467 653 l 681 653 l 681 662 q 448 699 448 684 q 429 788 440 788 l 396 783 q 345 788 355 788 m 382 387 l 359 387 l 350 382 l 359 298 q 336 252 336 267 l 336 224 l 340 201 l 433 201 q 452 219 441 201 l 452 233 q 448 280 452 255 l 452 298 q 438 392 448 374 l 382 387 z "},"C":{"ha":871,"x_min":0,"x_max":804,"o":"m 789 977 q 804 972 799 972 l 804 944 q 776 897 804 930 q 724 781 776 781 l 383 781 q 351 645 351 781 l 346 626 l 332 626 q 290 654 302 654 q 178 635 262 645 l 98 645 l 98 635 q 182 612 98 621 l 276 612 q 355 537 311 612 q 322 224 355 469 q 364 191 336 191 l 369 191 q 739 196 502 191 q 776 159 751 196 q 771 79 771 104 l 771 42 q 720 0 771 0 l 696 0 q 574 56 574 0 l 574 103 q 561 117 574 109 l 551 117 q 532 37 551 98 l 532 5 q 514 0 524 0 l 351 0 q 262 70 330 0 q 173 42 232 57 q 131 5 161 5 l 61 5 q 28 19 45 5 q 19 393 23 113 q 61 444 37 444 l 89 439 l 94 448 l 94 458 q 14 486 14 467 q 9 524 9 511 q 5 892 5 837 q 0 920 5 896 q 47 972 16 972 l 490 972 q 789 977 595 972 z "},"D":{"ha":829,"x_min":-37,"x_max":770,"o":"m -27 979 q 208 974 135 974 l 724 974 q 770 927 751 974 q 766 890 766 894 q 761 519 761 574 q 724 467 761 467 q 677 458 706 467 l 677 448 q 686 439 678 439 q 714 444 711 444 q 751 392 730 444 q 742 17 747 119 q 709 3 725 3 l 639 3 q 592 40 616 3 l 503 68 q 418 -2 444 -2 l 254 -2 q 231 7 231 -2 l 235 35 q 217 115 217 97 l 208 115 q 193 101 201 115 l 193 54 q 71 -2 193 -2 l 48 -2 q -4 40 -4 -2 q -8 120 -4 109 q 1 707 1 294 l 1 772 q -32 922 1 922 l -37 946 l -37 974 q -27 979 -27 974 m 301 781 q 208 744 301 744 l 179 720 q 189 711 180 711 q 235 716 211 711 q 296 683 296 711 q 292 636 296 637 q 296 524 296 570 l 296 191 l 404 191 q 447 233 447 197 q 414 543 414 454 q 494 612 463 612 l 587 612 q 672 636 672 622 l 672 646 q 587 636 602 636 q 475 655 570 636 q 437 627 469 655 l 423 627 l 418 655 q 386 781 418 781 l 301 781 z "},"E":{"ha":851,"x_min":0,"x_max":789,"o":"m 56 972 l 770 972 q 785 958 777 972 l 785 916 q 789 892 785 901 q 733 780 789 780 l 709 780 q 427 789 494 780 q 395 785 409 785 l 348 789 q 324 597 348 755 l 334 592 l 353 592 q 531 573 531 592 l 536 554 l 531 531 q 559 465 531 482 l 568 470 l 564 493 q 620 583 564 583 q 761 587 660 583 q 766 573 766 578 q 770 422 766 534 q 724 385 753 385 l 602 385 q 559 427 578 385 l 554 427 q 522 385 554 385 l 348 385 q 329 216 343 307 q 334 197 334 208 l 700 197 q 709 188 709 196 l 709 178 l 686 174 l 616 174 q 592 146 598 165 q 597 141 597 146 l 644 146 l 709 146 q 766 193 728 146 l 770 193 q 780 183 780 191 l 780 132 q 785 28 780 98 q 700 0 762 0 l 639 0 q 592 117 592 0 l 592 136 l 587 136 q 564 5 567 136 l 300 5 q 188 122 239 5 q 193 141 188 133 q 188 193 188 173 l 188 244 q 169 258 188 256 q 71 254 132 258 q 14 277 14 263 l 14 376 q 9 380 14 380 l 14 390 l 14 395 q 9 432 14 414 q 14 441 9 441 q 9 512 9 488 l 9 639 q 5 658 9 650 q 178 695 5 682 q 202 705 178 703 l 212 700 q 230 714 230 707 l 230 719 l 141 733 q 90 719 98 719 q 14 789 14 719 q 9 846 14 846 l 14 855 q 9 940 9 911 q 56 972 9 972 m 155 230 q 169 193 161 222 l 164 183 q 169 90 169 120 l 174 90 l 169 80 l 169 56 q 174 37 169 46 q 108 0 174 16 l 33 0 q 0 212 10 0 q 37 226 24 226 l 132 226 l 155 230 z "},"F":{"ha":887,"x_min":0,"x_max":826,"o":"m 61 972 l 770 972 q 798 935 798 972 q 826 854 798 912 q 784 784 816 784 l 596 784 q 582 798 589 784 l 582 826 q 591 864 582 831 q 540 892 591 892 q 498 958 535 911 q 474 920 490 958 q 526 854 500 920 q 549 836 549 850 q 507 784 540 784 l 395 784 l 361 789 q 352 760 352 773 l 352 634 q 395 587 352 596 l 526 587 q 549 577 549 586 l 606 582 l 779 582 q 793 549 790 582 q 779 479 779 500 q 798 432 779 473 q 756 376 789 376 l 545 376 l 535 380 q 573 535 535 421 l 573 540 q 568 554 568 549 l 559 554 l 493 418 q 352 371 443 371 q 310 9 336 9 l 277 0 l 24 0 q 0 37 0 12 l 0 122 q 5 352 0 207 q 0 357 5 357 l 5 390 l 5 591 q 52 967 5 801 l 61 972 z "},"G":{"ha":874,"x_min":0,"x_max":806,"o":"m 788 975 q 802 970 797 970 l 802 942 q 774 895 802 928 q 723 779 774 779 l 382 779 q 350 644 350 779 l 345 625 l 331 625 q 289 653 302 653 q 177 634 261 644 l 98 644 l 98 634 q 182 611 98 620 l 275 611 q 355 536 311 611 q 321 224 355 468 q 363 191 336 191 l 480 191 q 499 252 488 191 q 508 256 508 252 l 517 252 l 527 252 q 657 261 562 252 q 751 252 693 261 q 779 280 761 253 l 769 284 q 736 275 760 284 q 639 289 651 289 q 592 284 633 289 q 485 392 485 296 l 485 462 l 480 490 q 527 550 492 550 l 741 550 q 806 513 779 550 l 806 229 q 769 79 769 159 l 769 42 q 718 0 769 0 l 694 0 q 569 37 593 0 l 536 37 l 536 5 l 513 0 l 350 0 q 261 70 329 0 q 172 42 231 57 q 131 5 161 5 l 60 5 q 28 19 45 5 q 19 392 23 113 q 60 443 37 443 l 89 438 l 94 448 l 94 457 q 14 485 14 467 q 9 522 9 511 q 5 890 5 836 q 0 918 5 894 q 47 970 16 970 l 490 970 q 788 975 595 970 z "},"H":{"ha":889,"x_min":0,"x_max":837,"o":"m 300 972 q 348 930 348 962 q 258 789 348 842 q 197 794 218 794 q 127 756 184 756 q 19 728 60 756 l 19 724 q 174 733 125 733 l 188 733 q 239 743 193 733 l 282 743 q 315 761 298 743 l 324 761 q 366 597 333 597 q 446 583 380 597 l 490 583 l 490 756 q 555 789 490 789 q 564 794 555 794 l 564 808 q 494 831 511 808 q 532 972 511 972 l 785 972 q 827 930 827 966 l 827 822 q 832 700 827 779 q 827 695 832 695 l 832 639 l 832 371 l 837 343 q 800 315 837 328 l 729 324 q 710 310 710 317 q 673 315 684 315 q 522 277 646 298 q 494 296 507 283 l 447 292 l 418 292 q 353 296 392 292 l 258 258 q 174 263 193 263 q 85 197 85 250 l 85 122 l 90 98 l 98 98 q 164 230 111 230 l 183 235 q 249 221 239 221 q 305 244 292 244 q 338 221 330 244 q 324 98 338 211 q 343 66 338 66 q 310 0 343 0 l 136 0 q 117 56 117 0 q 127 113 117 61 l 117 113 q 85 14 85 67 q 52 0 67 0 l 24 0 q 5 37 9 0 l 9 71 l 5 80 q 9 85 5 85 l 5 141 l 5 315 q 0 319 5 319 l 5 329 l 5 343 q 0 361 5 353 q 5 380 5 370 q 0 399 5 391 q 5 418 5 408 l 5 422 q 0 441 5 433 q 5 460 5 450 l 5 465 q 0 484 5 475 q 5 503 5 492 l 5 522 q 0 526 5 526 l 5 536 l 5 564 q 0 568 5 568 l 5 578 l 5 709 q 9 728 5 720 q 5 733 9 733 q 37 972 29 968 l 300 972 m 729 305 q 827 268 827 281 l 827 263 q 823 66 823 83 q 837 19 823 63 q 800 0 817 0 l 696 0 q 668 33 668 0 l 644 33 q 593 0 627 33 l 527 0 q 485 56 497 0 q 527 221 498 179 q 654 263 527 245 q 724 287 679 287 q 729 305 724 297 z "},"I":{"ha":399,"x_min":0,"x_max":334,"o":"m 37 972 l 291 972 q 329 892 329 972 l 329 831 q 334 789 329 814 q 291 751 334 758 l 244 751 q 202 723 202 729 l 202 713 q 263 718 232 713 q 324 695 324 709 l 324 606 q 329 37 324 408 q 286 0 317 0 l 258 0 q 169 90 229 0 q 159 80 159 87 l 159 61 q 169 9 159 28 l 155 0 l 33 0 q 0 71 19 0 q 5 667 5 522 l 9 709 l 5 718 q 9 864 9 805 l 9 958 q 37 972 14 972 z "},"J":{"ha":792,"x_min":0,"x_max":723,"o":"m 445 975 l 699 975 q 723 937 723 962 l 723 852 q 718 622 723 767 q 723 617 718 617 l 718 584 l 718 381 q 671 5 718 172 l 662 0 l 56 0 q 24 61 24 0 q 0 118 3 117 q 42 189 10 189 l 125 189 q 139 174 132 189 l 139 146 q 130 109 130 113 q 182 80 130 80 q 224 14 186 61 q 248 52 231 14 q 195 118 221 52 q 172 132 172 125 q 214 189 178 189 l 328 189 l 360 184 q 370 212 370 199 l 370 353 q 379 504 379 492 l 379 523 q 370 555 379 555 l 374 565 l 374 579 q 370 612 374 606 q 412 965 385 965 l 445 975 z "},"K":{"ha":867,"x_min":0,"x_max":801,"o":"m 37 979 l 61 974 l 150 974 q 197 918 157 973 l 197 791 q 178 684 193 684 q 182 669 182 675 q 173 623 173 627 q 211 529 173 552 l 224 529 q 290 543 286 543 q 332 519 321 519 q 337 524 332 524 q 300 576 325 555 q 220 566 245 566 l 201 581 q 224 772 216 619 q 220 787 224 778 q 224 876 224 838 l 224 922 q 211 955 224 938 l 211 964 q 220 974 212 974 l 318 974 q 332 960 325 974 q 337 721 337 783 q 361 679 337 712 l 351 595 l 361 590 l 384 590 l 440 585 q 454 679 450 604 q 450 693 454 684 q 459 871 459 776 q 511 974 484 974 l 745 974 q 782 904 782 974 q 791 871 787 904 l 777 758 q 801 679 782 729 q 749 600 801 600 q 661 538 679 600 q 642 534 652 534 l 595 534 q 553 511 571 534 l 637 496 l 763 496 l 777 487 l 772 454 l 772 450 q 791 374 772 440 q 768 150 768 227 l 768 140 q 782 75 782 79 l 782 52 q 730 0 782 13 l 642 0 l 618 5 l 618 52 q 604 66 618 58 l 600 66 q 562 0 590 0 l 492 0 q 454 37 462 0 l 459 47 l 459 56 q 435 150 459 89 q 468 290 442 290 q 684 314 585 300 l 684 323 l 468 323 q 440 370 462 323 q 421 379 433 370 l 332 379 q 323 290 328 355 q 332 248 332 255 q 169 229 313 229 q 131 201 138 217 q 136 197 136 201 q 262 206 201 206 q 342 178 342 200 q 300 5 342 5 l 103 5 q 66 28 77 5 q 122 98 122 73 l 122 197 l 117 197 q 84 89 96 185 q 14 14 56 89 l 5 14 q 24 347 19 327 q 0 431 5 385 q 71 651 0 651 q 159 669 71 656 l 173 684 q 159 688 164 688 q 122 684 147 688 q 14 707 14 692 q 37 979 24 979 z "},"L":{"ha":792,"x_min":0,"x_max":723,"o":"m 311 965 q 353 612 338 965 q 349 579 349 606 l 349 565 l 353 555 q 344 523 344 555 l 344 504 q 353 353 344 492 l 353 212 q 363 184 353 199 l 395 189 l 509 189 q 551 132 545 189 q 528 118 551 125 q 475 52 502 52 q 499 14 492 14 q 541 80 537 61 q 593 109 593 80 q 584 146 593 113 l 584 174 q 598 189 591 189 l 681 189 q 723 118 713 189 q 699 61 720 117 q 667 0 699 0 l 61 0 l 52 5 q 5 381 5 172 l 5 584 l 0 617 q 5 622 5 617 q 0 852 0 767 l 0 937 q 24 975 0 962 l 278 975 l 311 965 z "},"M":{"ha":1172,"x_min":0,"x_max":1105,"o":"m 117 979 l 281 979 q 318 913 318 979 l 318 895 q 309 848 318 885 l 323 782 l 323 777 q 206 763 273 768 l 206 754 l 318 754 l 347 749 q 393 768 379 768 l 398 768 q 435 721 422 751 l 435 707 q 421 665 421 689 q 450 590 434 590 q 646 585 600 585 q 651 590 646 590 q 665 557 651 571 l 698 562 l 768 562 q 791 566 783 562 l 819 562 l 833 562 q 974 529 974 562 l 998 524 l 1067 524 q 1105 506 1103 519 l 1105 37 q 1058 5 1084 5 l 880 5 q 772 71 772 5 q 768 75 768 71 l 768 347 l 763 379 l 758 379 q 679 384 734 379 l 674 374 q 632 173 674 173 l 590 173 q 529 169 560 173 q 450 197 450 169 l 421 379 q 347 389 358 385 q 309 262 327 389 l 262 229 q 173 258 173 229 q 150 309 161 294 l 155 332 q 108 468 155 446 q 14 506 14 468 l 0 707 q 103 745 0 745 q 201 782 104 751 l 201 791 l 197 791 q 75 787 153 791 q 0 814 18 794 q 24 974 0 974 q 117 979 75 979 m 782 974 l 1072 974 q 1096 880 1092 974 q 1063 585 1089 585 q 1035 571 1058 571 l 1002 571 l 913 604 q 814 824 867 824 q 768 852 768 824 l 777 885 q 772 969 777 893 l 782 974 m 814 777 q 871 604 828 777 q 749 590 844 590 l 745 590 q 651 613 651 593 q 665 627 658 613 l 665 637 q 661 688 665 656 q 703 777 679 777 l 814 777 m 52 435 l 84 435 q 136 337 121 435 q 145 314 145 337 q 140 300 140 304 q 182 211 158 211 q 332 178 332 201 l 337 155 l 328 150 l 314 150 q 229 145 273 150 q 150 197 190 145 l 140 201 l 136 192 q 178 126 157 126 q 328 94 328 126 q 337 52 337 63 q 286 0 311 0 l 169 0 q 24 33 24 0 q 14 122 14 90 l 14 393 q 52 435 14 435 z "},"N":{"ha":956,"x_min":0,"x_max":899,"o":"m 52 975 l 296 975 q 334 871 334 975 q 344 838 339 871 q 273 810 338 810 l 273 795 q 433 772 347 777 q 456 664 441 755 q 438 616 438 631 l 438 593 l 504 593 q 570 720 570 593 l 574 763 l 584 763 q 616 744 600 744 l 659 744 q 711 734 705 734 l 725 734 q 880 725 774 734 l 880 730 q 725 763 829 763 q 692 795 708 795 q 640 791 682 795 q 551 937 551 844 q 598 975 569 975 l 857 975 q 885 791 876 975 q 895 739 890 791 q 890 734 895 734 l 895 711 l 895 579 q 899 574 895 574 l 895 565 l 895 536 q 899 532 895 532 l 895 523 l 895 504 q 899 485 895 493 q 895 466 895 477 l 895 461 q 899 443 895 451 q 895 424 895 434 l 895 419 q 899 400 895 408 q 895 381 895 392 q 899 363 895 371 q 895 344 895 354 l 895 330 q 899 325 895 325 l 895 315 l 895 141 q 890 90 895 121 l 895 80 l 890 71 q 895 33 895 37 q 876 0 888 0 l 848 0 q 805 71 805 0 q 781 113 789 113 l 772 113 l 772 109 q 781 47 781 66 q 763 0 778 0 l 589 0 q 555 61 555 0 l 574 99 l 560 216 q 593 245 560 245 q 650 221 608 245 l 720 235 q 786 170 786 223 q 800 99 800 102 l 810 99 l 814 122 l 814 198 q 720 264 814 252 q 635 259 644 259 q 546 296 597 278 q 475 292 499 292 q 443 414 461 307 q 494 443 443 430 l 494 447 q 376 475 494 464 l 353 475 q 344 461 344 475 q 349 410 344 435 q 320 278 342 278 q 155 315 223 292 q 127 311 152 315 q 109 325 127 318 q 42 315 51 319 q 0 339 13 321 l 5 372 l 5 640 q 9 692 5 660 l 5 701 q 9 824 9 781 l 9 932 q 52 975 16 975 m 109 306 q 170 278 109 278 q 278 250 178 250 q 349 61 349 199 l 353 61 q 311 0 342 0 l 254 0 q 203 33 242 0 l 170 33 q 151 0 163 0 l 38 0 q 0 24 12 0 q 14 71 14 56 q 9 269 9 233 q 109 306 9 281 z "},"O":{"ha":867,"x_min":0,"x_max":806,"o":"m 23 972 l 275 972 q 330 911 323 972 l 330 869 q 344 856 330 863 l 353 856 q 372 935 353 874 l 372 967 q 391 972 380 972 l 457 972 q 545 902 477 972 q 633 930 575 915 q 675 967 646 967 l 745 967 q 778 954 761 967 q 787 581 783 852 q 745 530 768 530 l 718 534 l 713 526 l 713 516 q 792 488 792 507 q 796 451 796 463 q 801 83 801 139 q 806 56 806 59 q 760 5 790 5 l 344 5 q 116 0 260 5 q 51 18 51 14 q 5 386 5 172 l 5 586 l 0 614 l 5 623 q 0 851 0 767 l 0 935 q 23 972 0 960 m 340 781 q 349 618 344 648 q 344 581 344 600 l 344 567 q 349 563 344 563 q 340 526 340 546 l 340 507 q 349 358 349 370 l 349 218 l 353 195 l 425 195 q 457 330 457 195 q 462 349 462 347 l 475 349 q 517 321 505 321 q 629 340 545 330 l 708 330 l 708 340 q 625 363 708 353 l 532 363 q 452 437 496 363 q 485 749 452 505 q 443 781 471 781 l 340 781 z "},"P":{"ha":811,"x_min":0,"x_max":748,"o":"m 61 972 l 706 972 q 743 878 743 972 q 748 784 748 852 q 654 747 748 747 l 626 723 q 635 713 628 713 q 682 718 658 713 q 743 686 743 713 q 739 615 743 662 l 743 568 q 701 484 714 484 q 720 432 701 472 q 678 376 711 376 l 467 376 q 457 385 457 376 l 462 413 l 448 413 l 448 437 l 443 460 q 380 376 393 380 q 352 357 352 380 q 310 9 336 9 l 277 0 l 24 0 q 0 37 0 12 l 0 122 q 5 352 0 207 q 0 357 5 357 l 5 390 l 5 591 q 52 967 5 801 l 61 972 m 396 920 q 443 864 443 897 l 448 864 l 448 920 l 420 958 q 396 920 412 958 m 361 789 q 352 760 352 773 l 352 634 q 395 587 352 596 l 443 587 l 448 610 l 448 784 l 395 784 l 361 789 z "},"Q":{"ha":869,"x_min":2,"x_max":810,"o":"m 25 972 l 276 972 q 332 912 324 972 l 332 870 q 346 857 332 863 l 355 857 q 374 935 355 875 l 374 968 q 392 972 382 972 l 462 972 q 550 903 482 972 q 638 930 580 916 q 680 968 650 968 l 750 968 q 782 954 765 968 q 791 583 787 853 q 750 531 773 531 l 722 536 l 718 527 l 718 517 q 796 490 796 508 q 801 452 801 464 q 806 85 806 140 l 810 62 q 806 25 806 44 l 806 -115 q 764 -161 799 -161 l 736 -161 q 648 -73 707 -161 q 638 -82 638 -74 l 638 -100 q 648 -151 638 -134 l 633 -161 l 513 -161 q 480 -86 498 -161 l 480 -3 q 471 7 480 7 l 346 7 q 118 2 262 7 q 53 20 53 15 q 7 387 7 174 l 7 587 l 2 615 l 7 624 q 2 852 2 768 l 2 935 q 25 972 2 960 m 341 782 q 351 620 346 650 q 346 583 346 602 l 346 568 q 351 564 346 564 q 341 527 341 547 l 341 508 q 351 359 351 371 l 351 220 l 355 197 l 429 197 q 462 332 462 197 q 467 350 467 348 l 480 350 q 522 322 509 322 q 633 341 550 332 l 713 332 l 713 341 q 629 364 713 355 l 536 364 q 457 438 500 364 q 490 749 457 507 q 448 782 476 782 l 341 782 z "},"R":{"ha":871,"x_min":0,"x_max":801,"o":"m 37 979 l 61 974 l 150 974 q 197 918 157 973 l 197 791 q 178 684 193 684 q 182 669 182 675 q 173 623 173 627 q 211 529 173 552 l 224 529 q 290 543 286 543 q 332 519 321 519 q 337 524 332 524 q 300 576 325 555 q 220 566 245 566 l 201 581 q 224 772 216 619 q 220 787 224 778 q 224 876 224 838 l 224 922 q 211 955 224 938 l 211 964 q 220 974 212 974 l 745 974 q 782 904 782 974 q 791 871 787 904 l 777 758 q 801 679 782 729 q 749 600 801 600 q 661 538 679 600 q 642 534 652 534 l 595 534 q 553 511 571 534 l 637 496 l 763 496 l 777 487 l 772 454 l 772 450 q 791 374 772 440 q 768 150 768 227 l 768 140 q 782 75 782 79 l 782 52 q 730 0 782 13 l 642 0 l 618 5 l 618 52 q 604 66 618 58 l 600 66 q 562 0 590 0 l 492 0 q 454 37 462 0 l 459 47 l 459 56 q 435 150 459 89 q 468 290 442 290 q 684 314 585 300 l 684 323 l 468 323 q 440 370 462 323 q 421 379 433 370 l 332 379 q 323 290 328 355 q 332 248 332 255 q 169 229 313 229 q 131 201 138 217 q 136 197 136 201 q 262 206 201 206 q 342 178 342 200 q 300 5 342 5 l 103 5 q 66 28 77 5 q 122 98 122 73 l 122 197 l 117 197 q 84 89 96 185 q 14 14 56 89 l 5 14 q 24 347 19 327 q 0 431 5 385 q 71 651 0 651 q 159 669 71 656 l 173 684 q 159 688 164 688 q 122 684 147 688 q 14 707 14 692 q 37 979 24 979 m 342 777 l 337 754 l 337 726 q 361 679 337 711 l 351 595 l 361 590 l 384 590 l 440 585 q 454 679 450 604 l 450 698 q 454 745 454 722 l 454 758 q 435 777 454 766 l 342 777 z "},"S":{"ha":861,"x_min":0,"x_max":774,"o":"m 38 971 l 113 971 q 179 939 143 971 l 174 915 l 174 891 q 179 886 174 886 q 174 872 174 878 q 170 783 174 858 l 174 783 q 160 741 169 751 l 137 745 l 43 745 q 5 764 17 745 q 38 971 16 971 m 628 971 l 690 971 q 774 943 751 971 q 770 840 770 872 l 770 787 q 760 778 770 778 l 755 778 q 699 825 718 825 l 633 825 l 586 830 q 581 825 586 825 q 605 797 588 806 l 675 797 l 699 792 l 699 783 q 690 773 699 773 l 340 773 l 335 749 q 353 589 345 707 l 751 589 q 765 543 760 589 q 760 533 765 533 q 765 462 765 486 l 765 335 q 770 316 765 324 q 595 278 770 292 q 572 269 595 269 l 562 273 q 543 259 543 267 l 543 254 l 633 241 q 685 254 676 254 q 760 184 760 254 q 765 127 760 127 l 760 118 q 765 33 765 61 q 718 0 765 0 l 19 0 q 5 14 12 0 l 5 56 q 0 80 5 73 q 56 193 0 193 l 80 193 q 363 184 296 193 q 378 189 382 189 l 426 184 q 449 377 426 218 l 439 382 l 421 382 q 259 401 259 382 l 254 420 l 259 444 q 231 509 259 492 l 222 505 l 227 481 q 170 391 227 391 q 28 387 130 391 q 24 401 24 396 q 19 551 24 441 l 33 575 l 33 585 q 19 594 19 585 l 19 693 q 80 717 19 709 q 184 712 134 712 l 193 726 l 193 778 q 198 830 193 798 q 193 848 193 838 q 297 966 249 966 l 553 966 l 553 962 q 576 835 557 835 l 581 835 l 581 853 q 628 971 581 971 z "},"T":{"ha":859,"x_min":0,"x_max":800,"o":"m 28 972 l 547 972 l 561 963 q 514 846 514 865 q 528 823 525 846 q 519 767 519 781 q 533 734 530 734 l 528 711 l 528 37 q 463 0 500 0 l 248 0 q 201 56 215 0 l 205 89 l 205 131 q 286 257 205 257 q 313 267 286 263 q 365 262 355 262 l 458 276 q 496 267 482 267 l 500 276 q 477 299 496 276 q 374 290 412 290 q 248 299 284 299 l 239 299 q 234 294 234 299 q 210 346 214 294 q 215 753 215 666 q 252 869 229 844 l 252 879 q 187 795 211 879 l 163 790 q 33 785 127 790 q 0 884 7 785 q 28 972 9 972 m 589 972 l 659 972 q 785 963 741 972 l 785 949 q 800 911 785 935 q 725 790 768 790 q 720 785 725 785 q 575 818 575 785 q 561 884 575 821 q 589 972 583 972 z "},"U":{"ha":824,"x_min":-33,"x_max":774,"o":"m 42 975 l 89 975 q 196 942 196 975 q 201 937 201 942 l 201 886 q 219 853 201 861 q 243 932 224 892 q 233 970 233 961 l 243 975 l 298 975 q 308 965 308 973 q 298 905 303 911 q 303 676 303 760 l 303 280 q 238 261 303 266 l 191 266 l 186 256 l 186 252 q 243 229 234 229 l 285 229 q 308 196 308 216 l 387 196 q 420 224 420 216 q 425 345 425 313 l 438 355 l 443 355 l 480 321 q 611 340 544 340 l 625 340 q 629 336 629 340 l 639 340 q 676 331 672 331 l 681 340 q 583 363 627 363 l 480 363 q 420 429 420 418 q 425 574 420 451 l 434 578 l 429 587 q 457 821 457 747 q 452 960 457 861 l 457 960 q 513 905 460 960 q 597 932 522 915 q 625 970 619 970 l 732 970 q 751 798 751 970 q 755 569 755 641 q 728 532 731 532 l 699 532 q 695 536 695 532 q 676 522 676 529 q 760 504 709 510 q 765 467 765 471 q 774 42 765 259 q 746 5 751 5 l 191 5 q -28 0 119 5 l -33 9 q 0 75 -33 59 q 9 214 9 147 l 9 363 q 5 382 9 374 l 9 392 l 5 401 l 9 410 l 5 420 l 9 429 q 5 448 5 437 l 9 448 l 5 457 l 5 462 q 9 467 5 467 l 5 475 l 5 480 q 9 485 5 485 l 5 494 l 5 504 q 9 508 5 508 l 5 517 l 5 522 q 9 527 5 527 l 5 536 l 5 541 q 9 545 5 545 l 5 555 l 5 559 q 9 564 5 564 l 5 574 l 5 578 q 9 583 5 583 l 5 592 l 5 709 q 0 872 5 762 l 5 872 l 0 881 l 0 886 q 5 890 0 890 q 0 895 5 895 q 42 975 0 975 z "},"V":{"ha":999,"x_min":0,"x_max":935,"o":"m 656 981 l 684 981 q 771 894 713 981 q 780 903 780 894 l 780 922 q 771 972 780 954 l 785 981 l 903 981 q 935 907 918 981 l 935 734 q 930 611 935 666 q 935 515 935 581 q 926 378 935 460 l 930 370 q 880 256 930 256 l 857 256 q 775 296 775 286 q 757 347 768 347 l 753 347 q 739 333 746 347 l 743 288 q 648 274 716 274 l 634 274 q 557 296 557 277 q 570 310 563 296 q 566 370 570 340 q 602 456 579 456 l 621 456 l 621 460 q 616 944 621 576 q 656 981 627 981 m 37 967 l 283 967 q 319 889 319 967 l 319 830 q 324 789 319 814 q 283 753 324 760 l 237 753 q 196 725 196 731 l 196 716 q 256 721 225 716 q 315 698 315 711 l 315 452 l 319 442 l 342 447 q 374 392 374 425 q 360 342 360 354 q 388 274 374 274 l 543 269 q 557 274 551 274 q 570 246 557 246 q 656 251 633 246 l 785 241 q 721 155 721 201 l 721 114 q 656 77 721 77 l 648 68 l 625 73 l 621 73 q 616 68 616 73 l 607 73 l 589 73 q 570 5 581 73 q 552 0 562 0 l 392 0 l 370 5 l 370 23 q 342 73 370 73 q 283 119 283 73 q 256 182 283 182 l 155 182 q 123 214 123 182 l 123 283 q 109 296 123 290 l 96 296 q 5 324 5 296 l 5 474 q 0 497 5 490 l 5 524 l 5 661 q 9 707 5 683 q 5 721 9 712 q 9 862 9 805 l 9 954 q 37 967 14 967 z "},"W":{"ha":1163,"x_min":0,"x_max":1101,"o":"m 168 975 l 284 975 q 336 914 316 975 q 284 858 336 858 q 154 830 154 858 q 135 779 135 783 q 140 774 140 779 q 210 825 192 825 q 229 830 212 825 q 313 825 273 825 l 326 825 q 336 816 336 824 q 317 774 336 801 l 317 746 q 308 704 317 734 q 340 587 331 587 q 425 611 425 587 q 467 802 440 802 q 527 806 511 802 q 587 802 557 802 l 625 802 q 671 639 671 802 l 671 597 l 681 592 q 755 597 728 597 q 765 606 765 597 l 765 900 q 830 965 783 965 q 877 970 831 970 l 1054 970 q 1101 937 1080 970 l 1101 471 q 1063 452 1101 458 l 994 452 q 942 420 978 452 q 881 415 912 420 l 881 396 q 821 205 853 334 l 811 201 l 704 201 q 662 280 672 201 l 657 289 q 662 340 662 321 l 662 350 q 634 392 646 363 q 443 387 608 392 q 420 313 420 343 q 433 271 420 288 l 433 256 q 396 210 420 227 l 392 210 q 350 229 353 218 l 317 224 l 205 224 l 205 214 q 321 201 271 210 l 321 196 q 308 126 308 133 q 317 84 317 96 l 317 65 q 280 0 317 0 l 117 0 q 9 19 9 0 l 0 163 q 79 191 22 185 q 201 186 148 186 l 201 191 q 140 214 201 199 q 14 243 87 243 l 0 271 q 19 494 10 469 q 14 686 14 616 l 14 853 q 65 970 14 970 q 168 975 119 975 m 998 406 l 1031 406 q 1082 275 1082 406 q 1091 94 1091 134 q 1068 5 1086 5 l 779 5 q 769 14 769 5 q 774 102 774 77 q 765 131 765 118 q 830 159 765 159 q 900 340 865 178 q 965 387 900 387 q 998 406 972 406 z "},"X":{"ha":891,"x_min":0,"x_max":823,"o":"m 767 972 q 804 902 804 972 q 814 869 809 902 l 800 758 q 823 679 804 729 q 772 600 823 600 q 684 539 702 600 q 665 534 675 534 l 618 534 q 576 511 595 534 l 661 498 l 786 498 l 800 488 l 795 456 l 795 451 q 814 376 795 441 q 791 153 791 230 l 791 144 q 804 79 804 83 l 804 56 q 753 5 804 18 l 665 5 l 642 9 l 642 56 q 628 70 642 62 l 623 70 q 586 5 614 5 l 516 5 q 479 42 487 5 l 484 51 l 484 60 q 460 153 484 93 q 493 293 467 293 q 707 316 608 302 l 707 326 l 493 326 l 460 372 l 446 381 l 414 381 l 358 386 q 344 293 349 368 q 349 279 344 288 q 340 102 340 197 q 288 0 315 0 l 56 0 q 18 70 18 0 q 9 102 14 70 l 23 214 q 0 293 18 243 q 51 372 0 372 q 140 433 121 372 q 158 437 148 437 l 205 437 q 246 460 228 437 l 163 474 l 37 474 l 23 484 l 28 516 l 28 521 q 9 595 28 530 q 33 819 33 742 l 33 827 q 18 892 18 888 l 18 916 q 70 967 18 954 l 158 967 l 181 962 l 181 916 q 195 902 181 909 l 200 902 q 237 967 209 967 l 307 967 q 344 930 336 967 l 340 921 l 340 911 q 363 819 340 879 q 330 679 356 679 q 116 656 215 669 l 116 646 l 330 646 l 363 600 l 376 591 l 409 591 l 465 586 q 479 679 474 604 q 474 693 479 684 q 484 869 484 775 q 534 972 508 972 l 767 972 z "},"Y":{"ha":885,"x_min":0,"x_max":818,"o":"m 762 972 q 799 902 799 972 q 808 869 804 902 l 794 757 q 818 677 799 728 q 766 598 818 598 q 677 537 696 598 q 659 532 669 532 l 612 532 q 570 509 589 532 l 654 495 l 781 495 l 794 486 l 789 453 l 789 448 q 808 374 789 439 q 785 159 785 222 q 799 136 794 136 q 794 121 799 130 q 799 42 799 73 q 752 0 780 0 l 56 0 q 23 61 23 0 q 0 117 3 115 q 42 187 10 187 l 229 187 q 243 173 235 187 l 243 145 q 233 107 233 111 q 285 79 233 79 q 327 14 290 61 q 351 52 334 14 q 299 117 324 52 q 275 131 275 124 q 317 187 282 187 l 458 187 q 472 313 458 206 l 472 336 q 444 378 472 357 q 271 383 326 383 l 121 383 l 112 388 q 149 435 121 435 l 196 435 q 238 458 220 435 l 154 472 l 28 472 l 14 481 l 19 514 l 19 519 q 0 593 19 528 q 23 818 23 741 l 23 827 q 9 892 9 888 l 9 916 q 61 967 9 954 l 149 967 l 173 962 l 173 916 q 187 902 173 909 l 191 902 q 229 967 201 967 l 299 967 q 336 930 329 967 l 332 920 l 332 911 q 355 818 332 878 q 322 677 349 677 q 107 654 207 668 l 107 645 l 322 645 l 355 598 l 369 589 l 401 589 l 458 584 q 472 677 467 602 q 467 692 472 682 q 477 869 477 774 q 528 972 501 972 l 762 972 z "},"Z":{"ha":861,"x_min":0,"x_max":774,"o":"m 38 0 q 5 208 16 0 q 43 227 17 227 l 137 227 l 160 231 q 174 189 169 220 l 170 189 q 174 99 174 114 q 179 85 174 94 q 174 80 174 85 l 174 56 l 179 33 q 113 0 143 0 l 38 0 m 628 0 q 581 118 581 0 l 581 137 l 576 137 q 553 9 557 137 l 553 5 l 297 5 q 193 123 249 5 q 198 142 193 133 q 193 193 193 174 l 193 245 l 184 259 q 80 254 134 259 q 19 278 19 262 l 19 377 q 33 387 19 387 l 33 396 l 19 420 q 24 570 24 531 q 28 585 24 576 q 170 580 130 580 q 227 490 227 580 l 222 467 l 231 462 q 259 528 259 479 l 254 551 l 259 570 q 421 589 259 589 l 439 589 l 449 594 q 426 787 426 753 l 378 783 q 363 787 382 783 q 80 778 296 778 l 56 778 q 0 891 0 778 q 5 915 5 899 l 5 957 q 19 971 12 971 l 718 971 q 765 939 765 971 q 760 853 765 910 l 765 844 q 760 787 760 844 q 685 717 760 717 q 633 731 676 717 l 543 717 l 543 712 q 562 698 543 705 l 572 703 q 595 693 595 703 q 770 655 770 680 q 765 637 765 647 l 765 509 q 760 439 765 486 q 765 429 765 439 q 751 382 760 382 l 353 382 q 335 222 345 264 l 340 198 l 690 198 q 699 189 699 198 l 699 179 l 675 174 l 605 174 q 581 146 588 165 q 586 142 586 146 l 633 146 l 699 146 q 755 193 718 146 l 760 193 q 770 184 770 193 l 770 132 q 774 28 770 99 q 690 0 751 0 l 628 0 z "},"[":{"ha":514,"x_min":0,"x_max":0,"o":""},"\\":{"ha":386,"x_min":0,"x_max":0,"o":""},"]":{"ha":514,"x_min":0,"x_max":0,"o":""},"^":{"ha":688,"x_min":0,"x_max":0,"o":""},"_":{"ha":694,"x_min":0,"x_max":0,"o":""},"`":{"ha":694,"x_min":0,"x_max":0,"o":""},"a":{"ha":871,"x_min":0,"x_max":810,"o":"m 43 980 q 592 975 409 975 l 786 975 l 810 970 l 810 904 l 805 848 l 810 848 q 805 833 805 838 q 795 469 805 682 l 800 469 q 795 454 795 460 q 791 227 795 413 q 758 203 784 203 q 715 227 739 203 q 535 237 671 227 q 473 213 486 213 q 445 289 473 266 l 383 289 l 355 294 q 332 260 342 294 q 341 24 341 114 q 298 0 317 0 l 237 0 q 194 24 218 0 l 165 0 l 19 0 q 0 43 0 6 q 24 402 19 240 l 19 412 l 24 440 l 19 450 q 24 469 24 458 q 19 488 24 479 q 24 507 24 496 l 24 516 q 19 521 24 521 l 24 530 l 24 814 q 28 866 24 834 l 24 876 q 28 909 28 895 l 24 918 q 28 937 28 926 l 28 951 q 24 956 28 956 q 43 980 30 978 m 213 791 l 208 743 l 208 724 q 222 686 208 690 l 332 686 l 341 682 q 303 625 341 625 q 270 583 270 625 q 260 526 270 570 l 275 502 l 275 450 q 284 440 276 440 l 327 440 q 355 507 336 444 l 407 516 q 483 469 483 499 q 478 440 478 444 l 488 435 l 535 435 q 568 568 549 435 q 540 634 541 604 l 535 634 l 488 629 q 469 677 480 640 l 483 686 l 507 686 q 611 691 540 686 q 615 705 611 696 q 611 710 615 710 l 615 734 l 615 786 l 492 786 q 450 696 485 786 l 426 691 l 346 691 q 355 777 355 730 q 351 791 351 785 l 213 791 m 540 213 q 696 175 696 207 q 786 132 754 175 q 710 0 786 0 l 488 0 q 445 33 459 0 q 483 199 467 199 q 540 213 496 199 z "},"b":{"ha":865,"x_min":0,"x_max":798,"o":"m 555 975 q 592 970 581 970 q 709 975 639 975 q 779 956 779 975 l 779 928 q 783 890 779 909 q 765 788 779 822 q 788 606 783 611 l 769 527 l 769 522 l 774 490 l 760 480 l 634 480 q 550 462 550 469 q 592 443 578 443 l 639 443 q 686 392 661 443 q 783 368 713 378 q 798 298 791 351 q 774 219 779 248 l 788 107 q 746 5 773 5 l 219 5 q 210 14 210 5 l 210 23 q 224 56 224 41 l 224 102 q 219 186 224 142 l 224 205 q 182 298 205 308 l 177 298 q 196 186 196 264 l 196 60 q 149 5 185 40 l 60 5 l 37 0 q 14 275 24 0 q 121 294 22 283 q 168 289 146 289 l 172 298 q 60 326 143 315 q 5 448 5 352 q 0 545 0 530 q 19 625 0 564 l 5 657 l 19 681 l 5 960 q 9 965 9 960 l 19 960 q 56 970 36 970 l 336 970 q 555 975 433 970 m 345 788 l 326 611 q 331 597 331 602 l 420 597 q 457 648 457 617 l 467 653 l 681 653 l 681 662 q 448 699 448 684 q 429 788 440 788 l 396 783 q 345 788 355 788 m 382 387 l 359 387 l 350 382 l 359 298 q 336 252 336 267 l 336 224 l 340 201 l 433 201 q 452 219 441 201 l 452 233 q 448 280 452 255 l 452 298 q 438 392 448 374 l 382 387 z "},"c":{"ha":871,"x_min":0,"x_max":804,"o":"m 789 977 q 804 972 799 972 l 804 944 q 776 897 804 930 q 724 781 776 781 l 383 781 q 351 645 351 781 l 346 626 l 332 626 q 290 654 302 654 q 178 635 262 645 l 98 645 l 98 635 q 182 612 98 621 l 276 612 q 355 537 311 612 q 322 224 355 469 q 364 191 336 191 l 369 191 q 739 196 502 191 q 776 159 751 196 q 771 79 771 104 l 771 42 q 720 0 771 0 l 696 0 q 574 56 574 0 l 574 103 q 561 117 574 109 l 551 117 q 532 37 551 98 l 532 5 q 514 0 524 0 l 351 0 q 262 70 330 0 q 173 42 232 57 q 131 5 161 5 l 61 5 q 28 19 45 5 q 19 393 23 113 q 61 444 37 444 l 89 439 l 94 448 l 94 458 q 14 486 14 467 q 9 524 9 511 q 5 892 5 837 q 0 920 5 896 q 47 972 16 972 l 490 972 q 789 977 595 972 z "},"d":{"ha":829,"x_min":-37,"x_max":770,"o":"m -27 979 q 208 974 135 974 l 724 974 q 770 927 751 974 q 766 890 766 894 q 761 519 761 574 q 724 467 761 467 q 677 458 706 467 l 677 448 q 686 439 678 439 q 714 444 711 444 q 751 392 730 444 q 742 17 747 119 q 709 3 725 3 l 639 3 q 592 40 616 3 l 503 68 q 418 -2 444 -2 l 254 -2 q 231 7 231 -2 l 235 35 q 217 115 217 97 l 208 115 q 193 101 201 115 l 193 54 q 71 -2 193 -2 l 48 -2 q -4 40 -4 -2 q -8 120 -4 109 q 1 707 1 294 l 1 772 q -32 922 1 922 l -37 946 l -37 974 q -27 979 -27 974 m 301 781 q 208 744 301 744 l 179 720 q 189 711 180 711 q 235 716 211 711 q 296 683 296 711 q 292 636 296 637 q 296 524 296 570 l 296 191 l 404 191 q 447 233 447 197 q 414 543 414 454 q 494 612 463 612 l 587 612 q 672 636 672 622 l 672 646 q 587 636 602 636 q 475 655 570 636 q 437 627 469 655 l 423 627 l 418 655 q 386 781 418 781 l 301 781 z "},"e":{"ha":851,"x_min":0,"x_max":789,"o":"m 56 972 l 770 972 q 785 958 777 972 l 785 916 q 789 892 785 901 q 733 780 789 780 l 709 780 q 427 789 494 780 q 395 785 409 785 l 348 789 q 324 597 348 755 l 334 592 l 353 592 q 531 573 531 592 l 536 554 l 531 531 q 559 465 531 482 l 568 470 l 564 493 q 620 583 564 583 q 761 587 660 583 q 766 573 766 578 q 770 422 766 534 q 724 385 753 385 l 602 385 q 559 427 578 385 l 554 427 q 522 385 554 385 l 348 385 q 329 216 343 307 q 334 197 334 208 l 700 197 q 709 188 709 196 l 709 178 l 686 174 l 616 174 q 592 146 598 165 q 597 141 597 146 l 644 146 l 709 146 q 766 193 728 146 l 770 193 q 780 183 780 191 l 780 132 q 785 28 780 98 q 700 0 762 0 l 639 0 q 592 117 592 0 l 592 136 l 587 136 q 564 5 567 136 l 300 5 q 188 122 239 5 q 193 141 188 133 q 188 193 188 173 l 188 244 q 169 258 188 256 q 71 254 132 258 q 14 277 14 263 l 14 376 q 9 380 14 380 l 14 390 l 14 395 q 9 432 14 414 q 14 441 9 441 q 9 512 9 488 l 9 639 q 5 658 9 650 q 178 695 5 682 q 202 705 178 703 l 212 700 q 230 714 230 707 l 230 719 l 141 733 q 90 719 98 719 q 14 789 14 719 q 9 846 14 846 l 14 855 q 9 940 9 911 q 56 972 9 972 m 155 230 q 169 193 161 222 l 164 183 q 169 90 169 120 l 174 90 l 169 80 l 169 56 q 174 37 169 46 q 108 0 174 16 l 33 0 q 0 212 10 0 q 37 226 24 226 l 132 226 l 155 230 z "},"f":{"ha":887,"x_min":0,"x_max":826,"o":"m 61 972 l 770 972 q 798 935 798 972 q 826 854 798 912 q 784 784 816 784 l 596 784 q 582 798 589 784 l 582 826 q 591 864 582 831 q 540 892 591 892 q 498 958 535 911 q 474 920 490 958 q 526 854 500 920 q 549 836 549 850 q 507 784 540 784 l 395 784 l 361 789 q 352 760 352 773 l 352 634 q 395 587 352 596 l 526 587 q 549 577 549 586 l 606 582 l 779 582 q 793 549 790 582 q 779 479 779 500 q 798 432 779 473 q 756 376 789 376 l 545 376 l 535 380 q 573 535 535 421 l 573 540 q 568 554 568 549 l 559 554 l 493 418 q 352 371 443 371 q 310 9 336 9 l 277 0 l 24 0 q 0 37 0 12 l 0 122 q 5 352 0 207 q 0 357 5 357 l 5 390 l 5 591 q 52 967 5 801 l 61 972 z "},"g":{"ha":874,"x_min":0,"x_max":806,"o":"m 788 975 q 802 970 797 970 l 802 942 q 774 895 802 928 q 723 779 774 779 l 382 779 q 350 644 350 779 l 345 625 l 331 625 q 289 653 302 653 q 177 634 261 644 l 98 644 l 98 634 q 182 611 98 620 l 275 611 q 355 536 311 611 q 321 224 355 468 q 363 191 336 191 l 480 191 q 499 252 488 191 q 508 256 508 252 l 517 252 l 527 252 q 657 261 562 252 q 751 252 693 261 q 779 280 761 253 l 769 284 q 736 275 760 284 q 639 289 651 289 q 592 284 633 289 q 485 392 485 296 l 485 462 l 480 490 q 527 550 492 550 l 741 550 q 806 513 779 550 l 806 229 q 769 79 769 159 l 769 42 q 718 0 769 0 l 694 0 q 569 37 593 0 l 536 37 l 536 5 l 513 0 l 350 0 q 261 70 329 0 q 172 42 231 57 q 131 5 161 5 l 60 5 q 28 19 45 5 q 19 392 23 113 q 60 443 37 443 l 89 438 l 94 448 l 94 457 q 14 485 14 467 q 9 522 9 511 q 5 890 5 836 q 0 918 5 894 q 47 970 16 970 l 490 970 q 788 975 595 970 z "},"h":{"ha":889,"x_min":0,"x_max":837,"o":"m 300 972 q 348 930 348 962 q 258 789 348 842 q 197 794 218 794 q 127 756 184 756 q 19 728 60 756 l 19 724 q 174 733 125 733 l 188 733 q 239 743 193 733 l 282 743 q 315 761 298 743 l 324 761 q 366 597 333 597 q 446 583 380 597 l 490 583 l 490 756 q 555 789 490 789 q 564 794 555 794 l 564 808 q 494 831 511 808 q 532 972 511 972 l 785 972 q 827 930 827 966 l 827 822 q 832 700 827 779 q 827 695 832 695 l 832 639 l 832 371 l 837 343 q 800 315 837 328 l 729 324 q 710 310 710 317 q 673 315 684 315 q 522 277 646 298 q 494 296 507 283 l 447 292 l 418 292 q 353 296 392 292 l 258 258 q 174 263 193 263 q 85 197 85 250 l 85 122 l 90 98 l 98 98 q 164 230 111 230 l 183 235 q 249 221 239 221 q 305 244 292 244 q 338 221 330 244 q 324 98 338 211 q 343 66 338 66 q 310 0 343 0 l 136 0 q 117 56 117 0 q 127 113 117 61 l 117 113 q 85 14 85 67 q 52 0 67 0 l 24 0 q 5 37 9 0 l 9 71 l 5 80 q 9 85 5 85 l 5 141 l 5 315 q 0 319 5 319 l 5 329 l 5 343 q 0 361 5 353 q 5 380 5 370 q 0 399 5 391 q 5 418 5 408 l 5 422 q 0 441 5 433 q 5 460 5 450 l 5 465 q 0 484 5 475 q 5 503 5 492 l 5 522 q 0 526 5 526 l 5 536 l 5 564 q 0 568 5 568 l 5 578 l 5 709 q 9 728 5 720 q 5 733 9 733 q 37 972 29 968 l 300 972 m 729 305 q 827 268 827 281 l 827 263 q 823 66 823 83 q 837 19 823 63 q 800 0 817 0 l 696 0 q 668 33 668 0 l 644 33 q 593 0 627 33 l 527 0 q 485 56 497 0 q 527 221 498 179 q 654 263 527 245 q 724 287 679 287 q 729 305 724 297 z "},"i":{"ha":399,"x_min":0,"x_max":334,"o":"m 37 972 l 291 972 q 329 892 329 972 l 329 831 q 334 789 329 814 q 291 751 334 758 l 244 751 q 202 723 202 729 l 202 713 q 263 718 232 713 q 324 695 324 709 l 324 606 q 329 37 324 408 q 286 0 317 0 l 258 0 q 169 90 229 0 q 159 80 159 87 l 159 61 q 169 9 159 28 l 155 0 l 33 0 q 0 71 19 0 q 5 667 5 522 l 9 709 l 5 718 q 9 864 9 805 l 9 958 q 37 972 14 972 z "},"j":{"ha":792,"x_min":0,"x_max":723,"o":"m 445 975 l 699 975 q 723 937 723 962 l 723 852 q 718 622 723 767 q 723 617 718 617 l 718 584 l 718 381 q 671 5 718 172 l 662 0 l 56 0 q 24 61 24 0 q 0 118 3 117 q 42 189 10 189 l 125 189 q 139 174 132 189 l 139 146 q 130 109 130 113 q 182 80 130 80 q 224 14 186 61 q 248 52 231 14 q 195 118 221 52 q 172 132 172 125 q 214 189 178 189 l 328 189 l 360 184 q 370 212 370 199 l 370 353 q 379 504 379 492 l 379 523 q 370 555 379 555 l 374 565 l 374 579 q 370 612 374 606 q 412 965 385 965 l 445 975 z "},"k":{"ha":867,"x_min":0,"x_max":801,"o":"m 37 979 l 61 974 l 150 974 q 197 918 157 973 l 197 791 q 178 684 193 684 q 182 669 182 675 q 173 623 173 627 q 211 529 173 552 l 224 529 q 290 543 286 543 q 332 519 321 519 q 337 524 332 524 q 300 576 325 555 q 220 566 245 566 l 201 581 q 224 772 216 619 q 220 787 224 778 q 224 876 224 838 l 224 922 q 211 955 224 938 l 211 964 q 220 974 212 974 l 318 974 q 332 960 325 974 q 337 721 337 783 q 361 679 337 712 l 351 595 l 361 590 l 384 590 l 440 585 q 454 679 450 604 q 450 693 454 684 q 459 871 459 776 q 511 974 484 974 l 745 974 q 782 904 782 974 q 791 871 787 904 l 777 758 q 801 679 782 729 q 749 600 801 600 q 661 538 679 600 q 642 534 652 534 l 595 534 q 553 511 571 534 l 637 496 l 763 496 l 777 487 l 772 454 l 772 450 q 791 374 772 440 q 768 150 768 227 l 768 140 q 782 75 782 79 l 782 52 q 730 0 782 13 l 642 0 l 618 5 l 618 52 q 604 66 618 58 l 600 66 q 562 0 590 0 l 492 0 q 454 37 462 0 l 459 47 l 459 56 q 435 150 459 89 q 468 290 442 290 q 684 314 585 300 l 684 323 l 468 323 q 440 370 462 323 q 421 379 433 370 l 332 379 q 323 290 328 355 q 332 248 332 255 q 169 229 313 229 q 131 201 138 217 q 136 197 136 201 q 262 206 201 206 q 342 178 342 200 q 300 5 342 5 l 103 5 q 66 28 77 5 q 122 98 122 73 l 122 197 l 117 197 q 84 89 96 185 q 14 14 56 89 l 5 14 q 24 347 19 327 q 0 431 5 385 q 71 651 0 651 q 159 669 71 656 l 173 684 q 159 688 164 688 q 122 684 147 688 q 14 707 14 692 q 37 979 24 979 z "},"l":{"ha":792,"x_min":0,"x_max":723,"o":"m 311 965 q 353 612 338 965 q 349 579 349 606 l 349 565 l 353 555 q 344 523 344 555 l 344 504 q 353 353 344 492 l 353 212 q 363 184 353 199 l 395 189 l 509 189 q 551 132 545 189 q 528 118 551 125 q 475 52 502 52 q 499 14 492 14 q 541 80 537 61 q 593 109 593 80 q 584 146 593 113 l 584 174 q 598 189 591 189 l 681 189 q 723 118 713 189 q 699 61 720 117 q 667 0 699 0 l 61 0 l 52 5 q 5 381 5 172 l 5 584 l 0 617 q 5 622 5 617 q 0 852 0 767 l 0 937 q 24 975 0 962 l 278 975 l 311 965 z "},"m":{"ha":1172,"x_min":0,"x_max":1105,"o":"m 117 979 l 281 979 q 318 913 318 979 l 318 895 q 309 848 318 885 l 323 782 l 323 777 q 206 763 273 768 l 206 754 l 318 754 l 347 749 q 393 768 379 768 l 398 768 q 435 721 422 751 l 435 707 q 421 665 421 689 q 450 590 434 590 q 646 585 600 585 q 651 590 646 590 q 665 557 651 571 l 698 562 l 768 562 q 791 566 783 562 l 819 562 l 833 562 q 974 529 974 562 l 998 524 l 1067 524 q 1105 506 1103 519 l 1105 37 q 1058 5 1084 5 l 880 5 q 772 71 772 5 q 768 75 768 71 l 768 347 l 763 379 l 758 379 q 679 384 734 379 l 674 374 q 632 173 674 173 l 590 173 q 529 169 560 173 q 450 197 450 169 l 421 379 q 347 389 358 385 q 309 262 327 389 l 262 229 q 173 258 173 229 q 150 309 161 294 l 155 332 q 108 468 155 446 q 14 506 14 468 l 0 707 q 103 745 0 745 q 201 782 104 751 l 201 791 l 197 791 q 75 787 153 791 q 0 814 18 794 q 24 974 0 974 q 117 979 75 979 m 782 974 l 1072 974 q 1096 880 1092 974 q 1063 585 1089 585 q 1035 571 1058 571 l 1002 571 l 913 604 q 814 824 867 824 q 768 852 768 824 l 777 885 q 772 969 777 893 l 782 974 m 814 777 q 871 604 828 777 q 749 590 844 590 l 745 590 q 651 613 651 593 q 665 627 658 613 l 665 637 q 661 688 665 656 q 703 777 679 777 l 814 777 m 52 435 l 84 435 q 136 337 121 435 q 145 314 145 337 q 140 300 140 304 q 182 211 158 211 q 332 178 332 201 l 337 155 l 328 150 l 314 150 q 229 145 273 150 q 150 197 190 145 l 140 201 l 136 192 q 178 126 157 126 q 328 94 328 126 q 337 52 337 63 q 286 0 311 0 l 169 0 q 24 33 24 0 q 14 122 14 90 l 14 393 q 52 435 14 435 z "},"n":{"ha":956,"x_min":0,"x_max":899,"o":"m 52 975 l 296 975 q 334 871 334 975 q 344 838 339 871 q 273 810 338 810 l 273 795 q 433 772 347 777 q 456 664 441 755 q 438 616 438 631 l 438 593 l 504 593 q 570 720 570 593 l 574 763 l 584 763 q 616 744 600 744 l 659 744 q 711 734 705 734 l 725 734 q 880 725 774 734 l 880 730 q 725 763 829 763 q 692 795 708 795 q 640 791 682 795 q 551 937 551 844 q 598 975 569 975 l 857 975 q 885 791 876 975 q 895 739 890 791 q 890 734 895 734 l 895 711 l 895 579 q 899 574 895 574 l 895 565 l 895 536 q 899 532 895 532 l 895 523 l 895 504 q 899 485 895 493 q 895 466 895 477 l 895 461 q 899 443 895 451 q 895 424 895 434 l 895 419 q 899 400 895 408 q 895 381 895 392 q 899 363 895 371 q 895 344 895 354 l 895 330 q 899 325 895 325 l 895 315 l 895 141 q 890 90 895 121 l 895 80 l 890 71 q 895 33 895 37 q 876 0 888 0 l 848 0 q 805 71 805 0 q 781 113 789 113 l 772 113 l 772 109 q 781 47 781 66 q 763 0 778 0 l 589 0 q 555 61 555 0 l 574 99 l 560 216 q 593 245 560 245 q 650 221 608 245 l 720 235 q 786 170 786 223 q 800 99 800 102 l 810 99 l 814 122 l 814 198 q 720 264 814 252 q 635 259 644 259 q 546 296 597 278 q 475 292 499 292 q 443 414 461 307 q 494 443 443 430 l 494 447 q 376 475 494 464 l 353 475 q 344 461 344 475 q 349 410 344 435 q 320 278 342 278 q 155 315 223 292 q 127 311 152 315 q 109 325 127 318 q 42 315 51 319 q 0 339 13 321 l 5 372 l 5 640 q 9 692 5 660 l 5 701 q 9 824 9 781 l 9 932 q 52 975 16 975 m 109 306 q 170 278 109 278 q 278 250 178 250 q 349 61 349 199 l 353 61 q 311 0 342 0 l 254 0 q 203 33 242 0 l 170 33 q 151 0 163 0 l 38 0 q 0 24 12 0 q 14 71 14 56 q 9 269 9 233 q 109 306 9 281 z "},"o":{"ha":867,"x_min":0,"x_max":806,"o":"m 23 972 l 275 972 q 330 911 323 972 l 330 869 q 344 856 330 863 l 353 856 q 372 935 353 874 l 372 967 q 391 972 380 972 l 457 972 q 545 902 477 972 q 633 930 575 915 q 675 967 646 967 l 745 967 q 778 954 761 967 q 787 581 783 852 q 745 530 768 530 l 718 534 l 713 526 l 713 516 q 792 488 792 507 q 796 451 796 463 q 801 83 801 139 q 806 56 806 59 q 760 5 790 5 l 344 5 q 116 0 260 5 q 51 18 51 14 q 5 386 5 172 l 5 586 l 0 614 l 5 623 q 0 851 0 767 l 0 935 q 23 972 0 960 m 340 781 q 349 618 344 648 q 344 581 344 600 l 344 567 q 349 563 344 563 q 340 526 340 546 l 340 507 q 349 358 349 370 l 349 218 l 353 195 l 425 195 q 457 330 457 195 q 462 349 462 347 l 475 349 q 517 321 505 321 q 629 340 545 330 l 708 330 l 708 340 q 625 363 708 353 l 532 363 q 452 437 496 363 q 485 749 452 505 q 443 781 471 781 l 340 781 z "},"p":{"ha":811,"x_min":0,"x_max":748,"o":"m 61 972 l 706 972 q 743 878 743 972 q 748 784 748 852 q 654 747 748 747 l 626 723 q 635 713 628 713 q 682 718 658 713 q 743 686 743 713 q 739 615 743 662 l 743 568 q 701 484 714 484 q 720 432 701 472 q 678 376 711 376 l 467 376 q 457 385 457 376 l 462 413 l 448 413 l 448 437 l 443 460 q 380 376 393 380 q 352 357 352 380 q 310 9 336 9 l 277 0 l 24 0 q 0 37 0 12 l 0 122 q 5 352 0 207 q 0 357 5 357 l 5 390 l 5 591 q 52 967 5 801 l 61 972 m 396 920 q 443 864 443 897 l 448 864 l 448 920 l 420 958 q 396 920 412 958 m 361 789 q 352 760 352 773 l 352 634 q 395 587 352 596 l 443 587 l 448 610 l 448 784 l 395 784 l 361 789 z "},"q":{"ha":869,"x_min":2,"x_max":810,"o":"m 25 972 l 276 972 q 332 912 324 972 l 332 870 q 346 857 332 863 l 355 857 q 374 935 355 875 l 374 968 q 392 972 382 972 l 462 972 q 550 903 482 972 q 638 930 580 916 q 680 968 650 968 l 750 968 q 782 954 765 968 q 791 583 787 853 q 750 531 773 531 l 722 536 l 718 527 l 718 517 q 796 490 796 508 q 801 452 801 464 q 806 85 806 140 l 810 62 q 806 25 806 44 l 806 -115 q 764 -161 799 -161 l 736 -161 q 648 -73 707 -161 q 638 -82 638 -74 l 638 -100 q 648 -151 638 -134 l 633 -161 l 513 -161 q 480 -86 498 -161 l 480 -3 q 471 7 480 7 l 346 7 q 118 2 262 7 q 53 20 53 15 q 7 387 7 174 l 7 587 l 2 615 l 7 624 q 2 852 2 768 l 2 935 q 25 972 2 960 m 341 782 q 351 620 346 650 q 346 583 346 602 l 346 568 q 351 564 346 564 q 341 527 341 547 l 341 508 q 351 359 351 371 l 351 220 l 355 197 l 429 197 q 462 332 462 197 q 467 350 467 348 l 480 350 q 522 322 509 322 q 633 341 550 332 l 713 332 l 713 341 q 629 364 713 355 l 536 364 q 457 438 500 364 q 490 749 457 507 q 448 782 476 782 l 341 782 z "},"r":{"ha":871,"x_min":0,"x_max":801,"o":"m 37 979 l 61 974 l 150 974 q 197 918 157 973 l 197 791 q 178 684 193 684 q 182 669 182 675 q 173 623 173 627 q 211 529 173 552 l 224 529 q 290 543 286 543 q 332 519 321 519 q 337 524 332 524 q 300 576 325 555 q 220 566 245 566 l 201 581 q 224 772 216 619 q 220 787 224 778 q 224 876 224 838 l 224 922 q 211 955 224 938 l 211 964 q 220 974 212 974 l 745 974 q 782 904 782 974 q 791 871 787 904 l 777 758 q 801 679 782 729 q 749 600 801 600 q 661 538 679 600 q 642 534 652 534 l 595 534 q 553 511 571 534 l 637 496 l 763 496 l 777 487 l 772 454 l 772 450 q 791 374 772 440 q 768 150 768 227 l 768 140 q 782 75 782 79 l 782 52 q 730 0 782 13 l 642 0 l 618 5 l 618 52 q 604 66 618 58 l 600 66 q 562 0 590 0 l 492 0 q 454 37 462 0 l 459 47 l 459 56 q 435 150 459 89 q 468 290 442 290 q 684 314 585 300 l 684 323 l 468 323 q 440 370 462 323 q 421 379 433 370 l 332 379 q 323 290 328 355 q 332 248 332 255 q 169 229 313 229 q 131 201 138 217 q 136 197 136 201 q 262 206 201 206 q 342 178 342 200 q 300 5 342 5 l 103 5 q 66 28 77 5 q 122 98 122 73 l 122 197 l 117 197 q 84 89 96 185 q 14 14 56 89 l 5 14 q 24 347 19 327 q 0 431 5 385 q 71 651 0 651 q 159 669 71 656 l 173 684 q 159 688 164 688 q 122 684 147 688 q 14 707 14 692 q 37 979 24 979 m 342 777 l 337 754 l 337 726 q 361 679 337 711 l 351 595 l 361 590 l 384 590 l 440 585 q 454 679 450 604 l 450 698 q 454 745 454 722 l 454 758 q 435 777 454 766 l 342 777 z "},"s":{"ha":861,"x_min":0,"x_max":774,"o":"m 38 971 l 113 971 q 179 939 143 971 l 174 915 l 174 891 q 179 886 174 886 q 174 872 174 878 q 170 783 174 858 l 174 783 q 160 741 169 751 l 137 745 l 43 745 q 5 764 17 745 q 38 971 16 971 m 628 971 l 690 971 q 774 943 751 971 q 770 840 770 872 l 770 787 q 760 778 770 778 l 755 778 q 699 825 718 825 l 633 825 l 586 830 q 581 825 586 825 q 605 797 588 806 l 675 797 l 699 792 l 699 783 q 690 773 699 773 l 340 773 l 335 749 q 353 589 345 707 l 751 589 q 765 543 760 589 q 760 533 765 533 q 765 462 765 486 l 765 335 q 770 316 765 324 q 595 278 770 292 q 572 269 595 269 l 562 273 q 543 259 543 267 l 543 254 l 633 241 q 685 254 676 254 q 760 184 760 254 q 765 127 760 127 l 760 118 q 765 33 765 61 q 718 0 765 0 l 19 0 q 5 14 12 0 l 5 56 q 0 80 5 73 q 56 193 0 193 l 80 193 q 363 184 296 193 q 378 189 382 189 l 426 184 q 449 377 426 218 l 439 382 l 421 382 q 259 401 259 382 l 254 420 l 259 444 q 231 509 259 492 l 222 505 l 227 481 q 170 391 227 391 q 28 387 130 391 q 24 401 24 396 q 19 551 24 441 l 33 575 l 33 585 q 19 594 19 585 l 19 693 q 80 717 19 709 q 184 712 134 712 l 193 726 l 193 778 q 198 830 193 798 q 193 848 193 838 q 297 966 249 966 l 553 966 l 553 962 q 576 835 557 835 l 581 835 l 581 853 q 628 971 581 971 z "},"t":{"ha":859,"x_min":0,"x_max":800,"o":"m 28 972 l 547 972 l 561 963 q 514 846 514 865 q 528 823 525 846 q 519 767 519 781 q 533 734 530 734 l 528 711 l 528 37 q 463 0 500 0 l 248 0 q 201 56 215 0 l 205 89 l 205 131 q 286 257 205 257 q 313 267 286 263 q 365 262 355 262 l 458 276 q 496 267 482 267 l 500 276 q 477 299 496 276 q 374 290 412 290 q 248 299 284 299 l 239 299 q 234 294 234 299 q 210 346 214 294 q 215 753 215 666 q 252 869 229 844 l 252 879 q 187 795 211 879 l 163 790 q 33 785 127 790 q 0 884 7 785 q 28 972 9 972 m 589 972 l 659 972 q 785 963 741 972 l 785 949 q 800 911 785 935 q 725 790 768 790 q 720 785 725 785 q 575 818 575 785 q 561 884 575 821 q 589 972 583 972 z "},"u":{"ha":824,"x_min":-33,"x_max":774,"o":"m 42 975 l 89 975 q 196 942 196 975 q 201 937 201 942 l 201 886 q 219 853 201 861 q 243 932 224 892 q 233 970 233 961 l 243 975 l 298 975 q 308 965 308 973 q 298 905 303 911 q 303 676 303 760 l 303 280 q 238 261 303 266 l 191 266 l 186 256 l 186 252 q 243 229 234 229 l 285 229 q 308 196 308 216 l 387 196 q 420 224 420 216 q 425 345 425 313 l 438 355 l 443 355 l 480 321 q 611 340 544 340 l 625 340 q 629 336 629 340 l 639 340 q 676 331 672 331 l 681 340 q 583 363 627 363 l 480 363 q 420 429 420 418 q 425 574 420 451 l 434 578 l 429 587 q 457 821 457 747 q 452 960 457 861 l 457 960 q 513 905 460 960 q 597 932 522 915 q 625 970 619 970 l 732 970 q 751 798 751 970 q 755 569 755 641 q 728 532 731 532 l 699 532 q 695 536 695 532 q 676 522 676 529 q 760 504 709 510 q 765 467 765 471 q 774 42 765 259 q 746 5 751 5 l 191 5 q -28 0 119 5 l -33 9 q 0 75 -33 59 q 9 214 9 147 l 9 363 q 5 382 9 374 l 9 392 l 5 401 l 9 410 l 5 420 l 9 429 q 5 448 5 437 l 9 448 l 5 457 l 5 462 q 9 467 5 467 l 5 475 l 5 480 q 9 485 5 485 l 5 494 l 5 504 q 9 508 5 508 l 5 517 l 5 522 q 9 527 5 527 l 5 536 l 5 541 q 9 545 5 545 l 5 555 l 5 559 q 9 564 5 564 l 5 574 l 5 578 q 9 583 5 583 l 5 592 l 5 709 q 0 872 5 762 l 5 872 l 0 881 l 0 886 q 5 890 0 890 q 0 895 5 895 q 42 975 0 975 z "},"v":{"ha":999,"x_min":0,"x_max":935,"o":"m 656 981 l 684 981 q 771 894 713 981 q 780 903 780 894 l 780 922 q 771 972 780 954 l 785 981 l 903 981 q 935 907 918 981 l 935 734 q 930 611 935 666 q 935 515 935 581 q 926 378 935 460 l 930 370 q 880 256 930 256 l 857 256 q 775 296 775 286 q 757 347 768 347 l 753 347 q 739 333 746 347 l 743 288 q 648 274 716 274 l 634 274 q 557 296 557 277 q 570 310 563 296 q 566 370 570 340 q 602 456 579 456 l 621 456 l 621 460 q 616 944 621 576 q 656 981 627 981 m 37 967 l 283 967 q 319 889 319 967 l 319 830 q 324 789 319 814 q 283 753 324 760 l 237 753 q 196 725 196 731 l 196 716 q 256 721 225 716 q 315 698 315 711 l 315 452 l 319 442 l 342 447 q 374 392 374 425 q 360 342 360 354 q 388 274 374 274 l 543 269 q 557 274 551 274 q 570 246 557 246 q 656 251 633 246 l 785 241 q 721 155 721 201 l 721 114 q 656 77 721 77 l 648 68 l 625 73 l 621 73 q 616 68 616 73 l 607 73 l 589 73 q 570 5 581 73 q 552 0 562 0 l 392 0 l 370 5 l 370 23 q 342 73 370 73 q 283 119 283 73 q 256 182 283 182 l 155 182 q 123 214 123 182 l 123 283 q 109 296 123 290 l 96 296 q 5 324 5 296 l 5 474 q 0 497 5 490 l 5 524 l 5 661 q 9 707 5 683 q 5 721 9 712 q 9 862 9 805 l 9 954 q 37 967 14 967 z "},"w":{"ha":1163,"x_min":0,"x_max":1101,"o":"m 168 975 l 284 975 q 336 914 316 975 q 284 858 336 858 q 154 830 154 858 q 135 779 135 783 q 140 774 140 779 q 210 825 192 825 q 229 830 212 825 q 313 825 273 825 l 326 825 q 336 816 336 824 q 317 774 336 801 l 317 746 q 308 704 317 734 q 340 587 331 587 q 425 611 425 587 q 467 802 440 802 q 527 806 511 802 q 587 802 557 802 l 625 802 q 671 639 671 802 l 671 597 l 681 592 q 755 597 728 597 q 765 606 765 597 l 765 900 q 830 965 783 965 q 877 970 831 970 l 1054 970 q 1101 937 1080 970 l 1101 471 q 1063 452 1101 458 l 994 452 q 942 420 978 452 q 881 415 912 420 l 881 396 q 821 205 853 334 l 811 201 l 704 201 q 662 280 672 201 l 657 289 q 662 340 662 321 l 662 350 q 634 392 646 363 q 443 387 608 392 q 420 313 420 343 q 433 271 420 288 l 433 256 q 396 210 420 227 l 392 210 q 350 229 353 218 l 317 224 l 205 224 l 205 214 q 321 201 271 210 l 321 196 q 308 126 308 133 q 317 84 317 96 l 317 65 q 280 0 317 0 l 117 0 q 9 19 9 0 l 0 163 q 79 191 22 185 q 201 186 148 186 l 201 191 q 140 214 201 199 q 14 243 87 243 l 0 271 q 19 494 10 469 q 14 686 14 616 l 14 853 q 65 970 14 970 q 168 975 119 975 m 998 406 l 1031 406 q 1082 275 1082 406 q 1091 94 1091 134 q 1068 5 1086 5 l 779 5 q 769 14 769 5 q 774 102 774 77 q 765 131 765 118 q 830 159 765 159 q 900 340 865 178 q 965 387 900 387 q 998 406 972 406 z "},"x":{"ha":891,"x_min":0,"x_max":823,"o":"m 767 972 q 804 902 804 972 q 814 869 809 902 l 800 758 q 823 679 804 729 q 772 600 823 600 q 684 539 702 600 q 665 534 675 534 l 618 534 q 576 511 595 534 l 661 498 l 786 498 l 800 488 l 795 456 l 795 451 q 814 376 795 441 q 791 153 791 230 l 791 144 q 804 79 804 83 l 804 56 q 753 5 804 18 l 665 5 l 642 9 l 642 56 q 628 70 642 62 l 623 70 q 586 5 614 5 l 516 5 q 479 42 487 5 l 484 51 l 484 60 q 460 153 484 93 q 493 293 467 293 q 707 316 608 302 l 707 326 l 493 326 l 460 372 l 446 381 l 414 381 l 358 386 q 344 293 349 368 q 349 279 344 288 q 340 102 340 197 q 288 0 315 0 l 56 0 q 18 70 18 0 q 9 102 14 70 l 23 214 q 0 293 18 243 q 51 372 0 372 q 140 433 121 372 q 158 437 148 437 l 205 437 q 246 460 228 437 l 163 474 l 37 474 l 23 484 l 28 516 l 28 521 q 9 595 28 530 q 33 819 33 742 l 33 827 q 18 892 18 888 l 18 916 q 70 967 18 954 l 158 967 l 181 962 l 181 916 q 195 902 181 909 l 200 902 q 237 967 209 967 l 307 967 q 344 930 336 967 l 340 921 l 340 911 q 363 819 340 879 q 330 679 356 679 q 116 656 215 669 l 116 646 l 330 646 l 363 600 l 376 591 l 409 591 l 465 586 q 479 679 474 604 q 474 693 479 684 q 484 869 484 775 q 534 972 508 972 l 767 972 z "},"y":{"ha":885,"x_min":0,"x_max":818,"o":"m 762 972 q 799 902 799 972 q 808 869 804 902 l 794 757 q 818 677 799 728 q 766 598 818 598 q 677 537 696 598 q 659 532 669 532 l 612 532 q 570 509 589 532 l 654 495 l 781 495 l 794 486 l 789 453 l 789 448 q 808 374 789 439 q 785 159 785 222 q 799 136 794 136 q 794 121 799 130 q 799 42 799 73 q 752 0 780 0 l 56 0 q 23 61 23 0 q 0 117 3 115 q 42 187 10 187 l 229 187 q 243 173 235 187 l 243 145 q 233 107 233 111 q 285 79 233 79 q 327 14 290 61 q 351 52 334 14 q 299 117 324 52 q 275 131 275 124 q 317 187 282 187 l 458 187 q 472 313 458 206 l 472 336 q 444 378 472 357 q 271 383 326 383 l 121 383 l 112 388 q 149 435 121 435 l 196 435 q 238 458 220 435 l 154 472 l 28 472 l 14 481 l 19 514 l 19 519 q 0 593 19 528 q 23 818 23 741 l 23 827 q 9 892 9 888 l 9 916 q 61 967 9 954 l 149 967 l 173 962 l 173 916 q 187 902 173 909 l 191 902 q 229 967 201 967 l 299 967 q 336 930 329 967 l 332 920 l 332 911 q 355 818 332 878 q 322 677 349 677 q 107 654 207 668 l 107 645 l 322 645 l 355 598 l 369 589 l 401 589 l 458 584 q 472 677 467 602 q 467 692 472 682 q 477 869 477 774 q 528 972 501 972 l 762 972 z "},"z":{"ha":861,"x_min":0,"x_max":774,"o":"m 38 0 q 5 208 16 0 q 43 227 17 227 l 137 227 l 160 231 q 174 189 169 220 l 170 189 q 174 99 174 114 q 179 85 174 94 q 174 80 174 85 l 174 56 l 179 33 q 113 0 143 0 l 38 0 m 628 0 q 581 118 581 0 l 581 137 l 576 137 q 553 9 557 137 l 553 5 l 297 5 q 193 123 249 5 q 198 142 193 133 q 193 193 193 174 l 193 245 l 184 259 q 80 254 134 259 q 19 278 19 262 l 19 377 q 33 387 19 387 l 33 396 l 19 420 q 24 570 24 531 q 28 585 24 576 q 170 580 130 580 q 227 490 227 580 l 222 467 l 231 462 q 259 528 259 479 l 254 551 l 259 570 q 421 589 259 589 l 439 589 l 449 594 q 426 787 426 753 l 378 783 q 363 787 382 783 q 80 778 296 778 l 56 778 q 0 891 0 778 q 5 915 5 899 l 5 957 q 19 971 12 971 l 718 971 q 765 939 765 971 q 760 853 765 910 l 765 844 q 760 787 760 844 q 685 717 760 717 q 633 731 676 717 l 543 717 l 543 712 q 562 698 543 705 l 572 703 q 595 693 595 703 q 770 655 770 680 q 765 637 765 647 l 765 509 q 760 439 765 486 q 765 429 765 439 q 751 382 760 382 l 353 382 q 335 222 345 264 l 340 198 l 690 198 q 699 189 699 198 l 699 179 l 675 174 l 605 174 q 581 146 588 165 q 586 142 586 146 l 633 146 l 699 146 q 755 193 718 146 l 760 193 q 770 184 770 193 l 770 132 q 774 28 770 99 q 690 0 751 0 l 628 0 z "},"":{"ha":728,"x_min":0,"x_max":0,"o":""},"ﬁ":{"ha":728,"x_min":0,"x_max":0,"o":""},"":{"ha":733,"x_min":0,"x_max":0,"o":""},"ﬂ":{"ha":733,"x_min":0,"x_max":0,"o":""}}}
